<svg version="1.1" id="Layer_1" xmlns="http://www.w3.org/2000/svg" xmlns:xlink="http://www.w3.org/1999/xlink" x="0px" y="0px"
	 width="100%" viewBox="0 0 376 386" enable-background="new 0 0 376 386" xml:space="preserve">
<path fill="#FFFAFF" opacity="1.000000" stroke="none" 
	d="
M213.000000,387.000000 
	C143.333344,387.000000 74.166634,386.967651 5.000217,387.096497 
	C1.575684,387.102875 0.901826,386.423889 0.904897,382.999939 
	C1.017889,257.000092 1.017880,131.000061 0.904917,5.000192 
	C0.901848,1.576543 1.575858,0.901671 4.999980,0.904840 
	C127.666519,1.018376 250.333191,1.018366 372.999725,0.904879 
	C376.423248,0.901712 377.098206,1.575660 377.095123,4.999910 
	C376.982117,130.999786 376.982117,256.999817 377.095062,382.999664 
	C377.098145,386.423004 376.425659,387.106354 373.000000,387.097382 
	C319.833618,386.958099 266.666748,387.000000 213.000000,387.000000 
z"/>
<path fill="#FF8E99" opacity="1.000000" stroke="none" 
	d="
M227.944550,146.606750 
	C234.496506,141.787003 239.517303,135.102448 245.665451,129.497314 
	C263.720947,113.036514 283.351776,99.381462 307.232239,92.800537 
	C322.462311,88.603470 337.432709,88.488426 351.882324,95.937851 
	C366.715485,103.585007 376.488678,123.866776 374.579315,140.488937 
	C371.634583,166.124588 356.252319,182.166443 335.045990,193.909439 
	C317.621338,203.558304 298.557037,207.996506 278.613647,210.252304 
	C279.856415,211.822235 281.494171,211.687210 283.000824,212.000412 
	C305.454834,216.668213 327.203796,223.248413 346.251343,236.590469 
	C357.598938,244.539047 366.327301,254.607468 369.357544,268.595886 
	C371.778320,279.770905 369.835022,290.557617 364.919556,300.635254 
	C352.189850,326.733765 333.315826,346.391266 304.553650,354.233582 
	C275.688049,362.104095 252.253021,351.979248 233.217667,330.223236 
	C222.306152,317.752197 215.584854,302.906494 210.799973,287.145660 
	C210.471039,286.062164 210.025833,285.013977 209.128387,282.571198 
	C208.011749,299.056793 205.783798,313.918884 200.790604,328.200531 
	C194.996292,344.773468 186.910080,359.887817 172.702591,370.999908 
	C149.081757,389.474365 119.656654,388.742188 96.707375,369.276398 
	C84.524239,358.942566 74.527245,347.081421 70.147842,331.468323 
	C64.348152,310.791809 69.778214,292.011353 81.070580,274.523163 
	C89.405464,261.615204 100.644814,251.494370 112.690620,242.186539 
	C114.087326,241.107269 115.889679,240.421875 116.635834,238.039108 
	C108.596649,239.581039 100.889595,241.279510 93.108276,242.507462 
	C74.955772,245.372055 56.961941,245.219925 39.567577,238.348221 
	C5.639452,224.944733 -5.038863,191.689636 8.579829,160.778152 
	C18.400414,138.487579 36.701256,126.810501 59.833656,122.105782 
	C86.646492,116.652527 111.236557,123.252670 134.363327,136.858170 
	C136.035446,137.841888 137.527878,139.207870 139.598923,139.521347 
	C140.453827,137.698380 138.983475,136.679184 138.301941,135.468414 
	C126.859001,115.139267 118.829308,93.736641 120.108597,70.015457 
	C121.511452,44.003174 131.657715,22.469488 155.534775,9.721441 
	C179.250977,-2.940735 206.402054,3.053366 223.275055,24.052389 
	C234.086075,37.507061 240.090668,52.774601 241.312195,70.201813 
	C242.953140,93.612633 237.376389,115.688171 230.556442,137.652176 
	C229.670700,140.504776 228.773468,143.353806 227.944550,146.606750 
z"/>
<path fill="#FF2C6E" opacity="1.000000" stroke="none" 
	d="
M160.753632,214.678665 
	C146.741638,215.824051 132.930267,215.866943 119.284683,212.979141 
	C115.746529,212.230347 112.311501,210.994232 108.452744,209.898590 
	C104.018951,209.023102 100.852570,206.813599 98.236771,203.308548 
	C91.328308,194.094879 89.665329,184.507095 94.228691,173.682877 
	C94.687531,170.620346 96.496223,168.926849 98.791519,167.216263 
	C102.655556,164.118942 105.879868,160.744080 110.016289,158.531555 
	C123.466400,151.337280 136.737381,152.607346 149.941956,159.284409 
	C158.770050,163.748444 166.113113,170.171646 173.656067,176.890488 
	C178.690338,179.538208 181.900101,183.658081 185.310669,187.999725 
	C185.358063,189.729645 184.376953,190.791901 184.090668,192.070847 
	C183.350876,195.375626 184.318253,198.076263 187.538925,199.419617 
	C190.782394,200.772461 194.435867,199.144196 195.887863,196.017776 
	C197.314316,192.946411 196.121674,189.743698 192.936829,188.075516 
	C191.308426,187.222565 189.356613,187.326584 187.500229,186.062927 
	C180.812363,171.852814 177.457733,157.037567 174.836578,142.018204 
	C174.635864,140.868118 174.825912,139.705383 175.658081,138.315887 
	C175.821640,130.662994 176.029694,123.431847 179.232132,116.583206 
	C181.183670,112.409698 183.715729,108.732109 187.557755,106.287491 
	C191.423141,103.828026 195.461884,104.483826 199.602783,107.033813 
	C202.754776,107.814125 203.848862,110.041512 204.807983,112.745682 
	C212.120880,133.755371 210.350494,154.910583 207.877533,177.377106 
	C213.244919,172.539154 217.219604,167.735168 222.287949,164.189240 
	C231.156769,157.984375 240.400223,154.297379 251.571838,159.101715 
	C253.894562,159.406509 254.937180,160.711426 255.776794,162.676880 
	C259.586334,170.974258 258.410400,178.085648 252.136627,184.684509 
	C251.004761,188.019348 248.635117,189.862396 246.100922,191.379654 
	C240.343658,194.826645 234.576172,198.348495 227.240097,198.504150 
	C225.348831,196.476898 225.308807,194.025299 224.409500,191.903244 
	C222.295776,186.915604 217.914520,184.026093 212.757690,184.365356 
	C207.258575,184.727142 203.183914,188.138062 201.760529,193.571152 
	C200.426376,198.663483 202.750946,204.567139 207.230850,207.464020 
	C211.581421,210.277313 216.414780,210.029129 220.655396,206.829849 
	C222.239395,205.634796 223.265350,203.802856 225.499420,202.996918 
	C234.509277,206.715210 243.629059,209.245743 251.879990,213.927414 
	C257.679779,217.218292 262.980804,221.030716 267.639648,225.852310 
	C273.158997,231.564407 275.986511,238.089966 275.096680,246.531723 
	C276.272949,249.289566 274.932526,250.898849 273.272339,252.741501 
	C268.612854,259.653564 263.201080,265.034729 255.066055,267.644775 
	C252.341415,270.087921 249.594498,269.653839 246.386154,268.508301 
	C231.084457,266.273285 220.468781,257.747681 211.971970,245.990540 
	C208.049805,240.563416 205.028992,234.651413 202.290161,228.217896 
	C201.897736,227.786194 201.765991,227.584930 201.686737,227.027695 
	C202.506317,224.979675 204.018387,223.815628 204.891266,222.191513 
	C207.159805,217.970596 205.900177,212.318634 202.078690,209.704391 
	C198.233383,207.073792 192.588470,208.061386 189.526276,211.900436 
	C186.483521,215.715164 186.826675,220.390823 190.419525,224.078278 
	C191.583191,225.272552 193.070221,226.099289 194.360764,227.683807 
	C195.228729,233.413666 191.653152,236.811478 188.266724,240.611115 
	C183.167603,245.598297 179.316940,251.379456 173.064987,254.639603 
	C168.868774,256.827789 164.679733,258.730804 159.423065,256.933533 
	C156.071075,256.839783 154.555222,254.929367 153.220322,252.249512 
	C147.691116,240.768616 153.732330,232.247009 159.762070,223.770172 
	C160.806793,222.301422 162.276352,221.134842 163.816635,219.576813 
	C166.129471,218.817947 167.976883,219.859680 169.930573,220.078064 
	C175.341751,220.682861 179.990280,217.203400 180.603378,212.062561 
	C181.301727,206.206772 177.612015,201.006760 172.355255,200.438263 
	C166.932327,199.851822 162.095032,203.592682 161.395660,208.935196 
	C161.159927,210.735855 161.453094,212.584259 160.753632,214.678665 
z"/>
<path fill="#FF8591" opacity="1.000000" stroke="none" 
	d="
M187.937256,241.167908 
	C189.563187,236.498962 193.291351,233.326889 194.261871,228.308685 
	C195.924881,226.469574 197.796738,226.707962 200.348022,227.547729 
	C200.382797,235.988281 196.234390,242.798859 193.366028,249.975174 
	C183.620117,274.358215 172.912643,298.331726 160.677963,321.584808 
	C155.266190,331.870361 149.511230,341.975433 143.909149,352.160828 
	C143.749298,352.451477 143.598572,352.764679 143.372452,352.998566 
	C141.676544,354.752808 139.786758,357.669556 137.361633,356.257019 
	C134.451965,354.562256 136.143005,351.511902 137.486221,349.198700 
	C153.362198,321.858063 167.397980,293.615356 179.398163,264.356720 
	C182.479355,256.844147 186.166565,249.572632 187.937256,241.167908 
z"/>
<path fill="#FF8591" opacity="1.000000" stroke="none" 
	d="
M175.521988,137.893906 
	C177.486023,154.356232 182.440002,169.876831 188.033295,185.622803 
	C187.769318,187.307281 186.904175,188.028168 185.279404,188.143127 
	C181.389496,184.541763 177.830261,181.080933 174.113525,177.328339 
	C174.942001,172.360474 172.709045,168.143585 171.946167,163.734833 
	C168.932114,146.316330 165.758667,128.936264 163.821304,111.341782 
	C162.046204,95.220772 160.294128,79.102119 160.096848,62.880398 
	C160.038071,58.046917 160.575729,53.088364 162.868393,47.381584 
	C166.490692,53.754177 166.771393,59.883320 166.891632,65.752686 
	C167.380997,89.637001 170.511475,113.222649 174.182953,136.763687 
	C174.243774,137.153687 174.818314,137.463562 175.521988,137.893906 
z"/>
<path fill="#FF8591" opacity="1.000000" stroke="none" 
	d="
M226.601593,198.411255 
	C236.066849,195.859436 244.609909,192.247681 251.701889,185.153458 
	C253.201096,186.609970 254.472275,185.272018 255.574265,184.933502 
	C277.526154,178.189972 298.768890,169.579865 319.434601,159.644318 
	C327.956818,155.547058 336.091553,150.623840 344.888977,147.047394 
	C346.698792,146.311646 348.634918,144.901566 350.111877,147.418747 
	C351.821686,150.332809 349.181763,151.092850 347.493744,152.275009 
	C334.736328,161.209274 320.245636,166.809525 306.225891,173.203293 
	C288.256653,181.398224 269.798126,188.525589 250.933365,194.444061 
	C243.053345,196.916275 235.305084,200.004501 226.601349,201.001862 
	C225.381546,200.154861 225.909790,199.392990 226.601593,198.411255 
z"/>
<path fill="#FF8591" opacity="1.000000" stroke="none" 
	d="
M246.030212,268.591431 
	C248.632172,268.157867 251.288895,268.041656 254.377075,267.908081 
	C270.609924,286.584930 288.953613,302.805481 305.894226,320.391296 
	C306.933044,321.469666 308.053833,322.476044 309.023071,323.612671 
	C310.240540,325.040497 310.465363,326.671906 309.126495,328.112518 
	C307.771942,329.570007 306.441437,328.762268 305.189789,327.753510 
	C301.970642,325.159027 298.629822,322.705139 295.523010,319.983490 
	C280.392242,306.728607 266.628235,292.128387 253.452362,276.957489 
	C251.066406,274.210266 247.898834,272.179077 246.030212,268.591431 
z"/>
<path fill="#FF8591" opacity="1.000000" stroke="none" 
	d="
M152.971771,252.326904 
	C154.882965,253.455170 156.754730,254.932373 158.828125,256.659088 
	C147.017273,270.390137 135.480637,284.266663 124.742294,298.785675 
	C118.435585,307.312775 112.364738,316.014282 106.190521,324.639313 
	C106.094612,324.773315 106.059998,324.955719 105.952797,325.076447 
	C104.497833,326.715179 103.332138,329.959198 100.749512,328.330780 
	C98.761871,327.077545 100.304024,324.366455 101.282242,322.435760 
	C107.013794,311.123535 114.981987,301.322723 122.345055,291.099915 
	C131.928085,277.794952 143.040985,265.724854 152.971771,252.326904 
z"/>
<path fill="#FF8591" opacity="1.000000" stroke="none" 
	d="
M256.191162,163.000885 
	C254.627563,161.934357 253.438034,160.826065 252.101395,159.453415 
	C253.489990,155.082230 257.774536,154.507202 260.889038,152.715866 
	C280.080994,141.677368 300.246857,132.607101 320.702087,124.188507 
	C323.742371,122.937241 327.035400,122.287827 330.230225,121.429604 
	C331.787109,121.011383 333.794098,120.135780 334.622528,122.126404 
	C335.414062,124.028374 333.584290,125.166817 332.121368,125.882202 
	C326.146851,128.803802 320.240448,131.928482 314.068542,134.370850 
	C295.001526,141.916122 276.933929,151.400055 259.317780,161.813858 
	C258.470612,162.314651 257.485901,162.582687 256.191162,163.000885 
z"/>
<path fill="#FFD637" opacity="1.000000" stroke="none" 
	d="
M226.804718,197.786789 
	C226.656113,198.938629 226.456955,199.680084 226.226959,200.712006 
	C226.105911,201.451965 226.015701,201.901474 225.890778,202.694794 
	C222.476074,208.036499 218.153046,211.399933 211.740128,210.487991 
	C204.443146,209.450333 199.724976,203.427063 200.127548,195.991821 
	C200.511597,188.898880 205.467026,183.684906 212.352020,183.129517 
	C219.479111,182.554611 224.887741,186.852692 226.474655,194.401932 
	C226.678223,195.370224 226.666260,196.383820 226.804718,197.786789 
z"/>
<path fill="#FF8591" opacity="1.000000" stroke="none" 
	d="
M273.287598,253.121368 
	C273.624481,251.211670 274.281372,249.444305 275.028198,247.330322 
	C282.342987,248.485260 287.599792,253.617676 293.643311,257.233215 
	C306.716949,265.054504 319.428864,273.461792 331.235138,283.144318 
	C333.023071,284.610626 334.658600,286.276215 336.263824,287.946533 
	C337.145844,288.864288 337.278748,290.165314 336.576508,291.183746 
	C335.800903,292.308594 334.453278,292.185181 333.409119,291.609863 
	C330.655121,290.092468 327.927582,288.512543 325.286133,286.807831 
	C308.030579,275.671814 291.694794,263.119415 273.287598,253.121368 
z"/>
<path fill="#FF8591" opacity="1.000000" stroke="none" 
	d="
M97.716568,202.972839 
	C101.342392,205.080566 104.492622,207.201401 107.859619,209.568741 
	C104.419777,211.141052 100.632767,210.209579 97.071404,209.818481 
	C82.627602,208.232330 68.180443,206.841568 53.677624,205.890472 
	C48.781384,205.569366 43.957558,204.117249 39.106621,203.151962 
	C37.965958,202.924973 36.517933,202.642242 36.500305,201.279129 
	C36.478584,199.599762 38.196571,199.160889 39.395683,199.145279 
	C45.370518,199.067368 51.396656,198.741577 57.314957,199.360947 
	C70.609657,200.752319 83.863480,202.520035 97.716568,202.972839 
z"/>
<path fill="#FF8591" opacity="1.000000" stroke="none" 
	d="
M205.153229,112.803497 
	C203.304749,111.287613 201.786530,109.489441 200.122559,107.406425 
	C200.485031,90.369736 198.243912,73.671616 198.993423,56.914494 
	C199.052765,55.587982 198.980789,54.255188 199.051987,52.929726 
	C199.131073,51.457878 199.782455,50.268982 201.381653,50.209393 
	C202.950943,50.150917 202.951813,51.655838 203.349258,52.681984 
	C205.417923,58.022892 205.427063,63.800632 205.655502,69.279182 
	C206.255554,83.670715 206.584213,98.112900 205.153229,112.803497 
z"/>
<path fill="#FFD638" opacity="1.000000" stroke="none" 
	d="
M160.768646,215.201324 
	C159.520660,210.624985 159.441772,206.414719 162.673233,202.787170 
	C166.250000,198.771973 172.242035,197.858322 176.747864,200.616211 
	C181.675827,203.632462 183.564774,209.661392 181.242783,214.962616 
	C179.121292,219.806137 173.856186,222.370880 168.509872,221.076920 
	C167.236435,220.768707 166.032990,220.171249 164.440475,219.515869 
	C163.041138,218.018814 161.998672,216.712723 160.768646,215.201324 
z"/>
<path fill="#FF8591" opacity="1.000000" stroke="none" 
	d="
M98.745941,166.910889 
	C97.659706,169.007095 96.216866,170.938980 94.528069,173.087662 
	C85.428436,169.539215 75.958763,168.088852 66.654961,166.052673 
	C61.804447,164.991104 56.905048,164.185455 52.338501,162.131027 
	C51.080936,161.565262 49.847977,160.790298 50.308521,159.167969 
	C50.726772,157.694626 52.161800,158.095764 53.274040,158.002426 
	C61.172432,157.339478 68.738914,159.306381 76.300339,161.071625 
	C83.701584,162.799469 91.029327,164.842102 98.745941,166.910889 
z"/>
<path fill="#FFFBFB" opacity="1.000000" stroke="none" 
	d="
M338.467712,172.444183 
	C341.683014,169.814575 344.654663,167.442810 347.523346,164.952408 
	C349.544861,163.197464 351.709778,161.703415 354.005859,164.033920 
	C356.304169,166.366760 354.297607,168.241196 352.658356,169.922577 
	C348.929474,173.747253 344.590576,176.776382 339.881317,179.232254 
	C338.096771,180.162888 335.904266,181.811569 334.117188,179.414886 
	C332.151428,176.778564 334.951202,175.716293 336.291656,174.257614 
	C336.846619,173.653702 337.546234,173.182755 338.467712,172.444183 
z"/>
<path fill="#FFFAFA" opacity="1.000000" stroke="none" 
	d="
M88.860168,292.976379 
	C91.769966,294.096008 92.234413,296.056122 91.129105,298.294342 
	C89.205406,302.189789 88.062798,306.316589 86.977562,310.485779 
	C86.459625,312.475494 85.502136,314.572205 83.158333,314.426666 
	C80.654198,314.271210 80.411705,311.818634 80.156769,309.889374 
	C79.333038,303.655731 83.900391,294.486816 88.860168,292.976379 
z"/>
<path fill="#FFFCFD" opacity="1.000000" stroke="none" 
	d="
M250.181274,329.894287 
	C247.486984,327.144897 244.856842,324.820984 243.018692,321.798035 
	C241.763107,319.733154 241.379211,317.674652 243.614029,316.074554 
	C245.815323,314.498505 247.398712,315.992371 248.675888,317.593079 
	C251.384613,320.988007 254.359665,324.128693 257.747864,326.816040 
	C260.058563,328.648773 261.246460,330.781616 259.176819,333.101318 
	C257.274994,335.232941 254.924622,334.199127 252.999435,332.522827 
	C252.122040,331.758850 251.290710,330.941956 250.181274,329.894287 
z"/>
<path fill="#FFFAFA" opacity="1.000000" stroke="none" 
	d="
M227.734726,51.308075 
	C227.990677,54.483734 227.972275,57.536255 224.457840,57.851070 
	C220.906830,58.169159 220.441788,55.016701 220.041382,52.358467 
	C219.515518,48.867397 218.174149,45.653942 216.860992,42.432388 
	C216.073166,40.499588 216.062164,38.846619 218.036591,37.699722 
	C220.028870,36.542454 221.610779,37.510860 222.815002,39.017483 
	C225.587753,42.486496 226.521057,46.747314 227.734726,51.308075 
z"/>
<path fill="#FFF9F9" opacity="1.000000" stroke="none" 
	d="
M56.604771,141.748138 
	C53.031021,142.737289 49.832176,143.587646 46.670361,144.558594 
	C44.469429,145.234436 42.643967,144.871094 41.583302,142.758713 
	C40.393120,140.388367 42.383507,139.488968 43.918457,138.583359 
	C47.225430,136.632278 50.762257,135.172440 54.530888,134.414505 
	C56.951672,133.927643 59.821320,133.195328 60.876053,136.398895 
	C61.917461,139.561966 59.539978,140.816147 56.604771,141.748138 
z"/>
<path fill="#FFF6F9" opacity="1.000000" stroke="none" 
	d="
M270.048828,339.209106 
	C269.611053,339.739410 269.394043,340.002167 269.120850,340.177246 
	C266.693115,341.733276 264.670013,340.677612 262.942535,338.983887 
	C261.746124,337.810852 261.742798,336.254242 262.843994,334.952759 
	C263.998138,333.588776 265.505280,333.083496 267.273285,333.753235 
	C269.668243,334.660461 271.388123,335.953156 270.048828,339.209106 
z"/>
<path fill="#FFFAFA" opacity="1.000000" stroke="none" 
	d="
M68.640846,137.138855 
	C67.368484,134.872757 67.812096,133.223557 69.842155,132.389725 
	C71.690506,131.630539 73.768471,131.364670 75.484665,132.708252 
	C76.684998,133.647964 77.415245,135.054749 76.639755,136.650909 
	C75.943893,138.083176 74.723175,139.069016 73.094055,138.806107 
	C71.667183,138.575836 70.312256,137.899719 68.640846,137.138855 
z"/>
<path fill="#FF8591" opacity="1.000000" stroke="none" 
	d="
M201.758209,226.940262 
	C202.038177,227.053574 202.039871,227.520782 202.034668,227.754120 
	C201.858688,227.991379 201.687912,227.995300 201.260986,228.001602 
	C201.004852,228.003998 200.895233,227.866577 200.840759,227.797607 
	C200.869843,227.315201 201.093430,227.009216 201.758209,226.940262 
z"/>
<path fill="#FFFAFF" opacity="1.000000" stroke="none" 
	d="
M228.002853,147.003571 
	C227.868378,147.232620 227.729172,147.456223 227.589951,147.679825 
	C227.581451,147.456528 227.572952,147.233215 227.774399,146.997650 
	C227.984344,146.985382 227.998108,146.998154 228.002853,147.003571 
z"/>
<path fill="#FFD538" opacity="1.000000" stroke="none" 
	d="
M202.295898,226.832169 
	C201.699753,227.065094 201.395035,227.172348 200.955139,227.552002 
	C198.894653,227.803375 197.003036,227.878098 194.714691,227.941193 
	C187.804718,224.759827 185.246780,220.579361 186.554825,215.242126 
	C187.822250,210.070663 192.182098,206.748169 197.464035,207.007950 
	C201.867615,207.224548 204.978760,209.448349 206.623047,213.489334 
	C208.612579,218.378754 207.342987,222.217316 202.295898,226.832169 
z"/>
<path fill="#FFD33B" opacity="1.000000" stroke="none" 
	d="
M184.813019,188.316818 
	C185.817123,187.441650 186.685501,186.880692 187.822449,186.158279 
	C195.047226,186.282211 199.184647,190.504974 197.425430,195.634155 
	C196.460068,198.448792 194.705490,200.619339 191.519867,201.072906 
	C188.290665,201.532684 185.569443,200.658981 183.762207,197.761612 
	C181.724380,194.494583 182.181763,191.455093 184.813019,188.316818 
z"/>
<path fill="#FFF1F6" opacity="1.000000" stroke="none" 
	d="
M104.467201,198.619781 
	C100.185699,195.025101 97.299034,191.143692 98.570129,185.503265 
	C98.895424,184.059784 99.298592,182.424683 101.149498,182.241989 
	C103.311195,182.028656 103.822891,183.657227 104.331871,185.341125 
	C105.197388,188.204590 106.098282,191.068832 108.893898,192.796997 
	C110.872231,194.019928 111.606888,195.725174 110.278946,197.850769 
	C108.836380,200.159836 106.913620,200.277283 104.467201,198.619781 
z"/>
<path fill="#FFF6F9" opacity="1.000000" stroke="none" 
	d="
M194.662750,111.475533 
	C195.141785,117.325935 190.506851,120.365540 188.230698,124.576553 
	C187.602859,125.738113 185.121826,125.758774 184.154205,123.694435 
	C182.617706,120.416420 186.877289,111.035759 190.374435,110.021797 
	C191.903000,109.578606 193.345047,109.832054 194.662750,111.475533 
z"/>
<path fill="#FFF6F9" opacity="1.000000" stroke="none" 
	d="
M263.472321,238.428360 
	C265.880798,243.485443 265.013336,248.069550 261.409851,251.192429 
	C259.997955,252.416000 258.470367,253.569962 256.536591,252.306076 
	C254.276947,250.829254 255.613647,249.140442 256.471008,247.585052 
	C257.362305,245.968079 258.145020,244.356613 257.968353,242.436111 
	C257.606873,238.506287 259.554108,237.357727 263.472321,238.428360 
z"/>
<path fill="#FFF0F5" opacity="1.000000" stroke="none" 
	d="
M241.592209,168.590866 
	C239.728333,167.520187 239.299545,166.175720 240.162918,164.656891 
	C240.871002,163.411285 242.221466,163.052231 243.602463,163.146332 
	C245.651352,163.285950 247.450638,164.129227 248.927002,165.518982 
	C250.783951,167.266983 251.859634,169.396301 249.816467,171.566223 
	C247.692719,173.821701 245.742874,172.911392 244.077194,170.667587 
	C243.514694,169.909851 242.626984,169.393539 241.592209,168.590866 
z"/>
<path fill="#FFECF2" opacity="1.000000" stroke="none" 
	d="
M167.407562,248.400848 
	C164.897491,248.830307 162.981857,248.521927 162.155823,246.193512 
	C161.673950,244.835205 161.979919,243.418045 163.268799,242.666138 
	C165.202301,241.538177 166.969894,239.627060 169.604126,240.712112 
	C170.973724,241.276276 171.786758,242.403488 171.756683,243.793381 
	C171.702164,246.313370 169.967010,247.559860 167.407562,248.400848 
z"/>
<path fill="#FFFEF7" opacity="1.000000" stroke="none" 
	d="
M210.220245,199.032654 
	C212.659561,198.875763 214.619125,198.911972 215.609879,201.162018 
	C216.186279,202.471069 216.113144,203.733887 215.140839,204.819061 
	C213.598297,206.540726 211.573624,206.216446 209.643906,205.890762 
	C208.060623,205.623550 207.021301,204.674942 206.900940,202.924469 
	C206.753143,200.774887 207.742905,199.526581 210.220245,199.032654 
z"/>
<path fill="#FFFCEF" opacity="1.000000" stroke="none" 
	d="
M167.007629,215.070801 
	C165.128708,212.707336 163.795776,210.323425 166.646057,208.437637 
	C169.061600,206.839508 171.066605,208.309799 172.425079,210.489792 
	C173.268265,211.842896 173.413208,213.377838 172.290421,214.643677 
	C170.884094,216.229202 169.128830,216.217484 167.007629,215.070801 
z"/>
<path fill="#FFFCEF" opacity="1.000000" stroke="none" 
	d="
M193.866379,222.138245 
	C192.078995,220.313477 191.130280,218.497177 192.964630,216.689957 
	C194.441284,215.235153 196.353333,215.488007 198.004562,216.580582 
	C199.350845,217.471390 200.102890,218.826294 199.425034,220.441727 
	C198.404343,222.874161 196.601593,223.546127 193.866379,222.138245 
z"/>
<path fill="#FFFCEF" opacity="1.000000" stroke="none" 
	d="
M191.204529,192.939987 
	C193.205048,194.810715 193.429901,196.685852 191.792252,198.406601 
	C190.667511,199.588455 189.043930,199.562820 187.632202,198.804001 
	C186.110672,197.986145 185.644714,196.451248 186.174179,194.952408 
	C186.938431,192.788956 188.548035,191.837204 191.204529,192.939987 
z"/>
</svg>