<svg version="1.1" id="Layer_1" xmlns="http://www.w3.org/2000/svg" xmlns:xlink="http://www.w3.org/1999/xlink" x="0px" y="0px"
	 width="100%" viewBox="0 0 586 620" enable-background="new 0 0 586 620" xml:space="preserve">
<path fill="#FFFAFF" opacity="1.000000" stroke="none" 
	d="
M0.999997,519.000000 
	C1.000000,346.364716 1.000000,173.729431 1.000000,1.047069 
	C196.266449,1.047069 391.532928,1.047069 586.899658,1.047069 
	C586.899658,207.562195 586.899658,414.124451 586.899658,620.843384 
	C391.666748,620.843384 196.333389,620.843384 1.000000,620.843384 
	C1.000000,608.255859 1.000000,595.591797 1.319147,582.305786 
	C3.693945,576.088745 6.191851,570.606934 7.663047,564.862183 
	C8.806654,560.396606 11.124904,557.407043 14.536976,554.506470 
	C21.479527,548.604614 28.566042,542.600769 31.340569,533.378418 
	C33.348766,526.703308 32.522358,520.452087 26.985796,515.640625 
	C21.756105,511.095734 15.633256,510.063538 9.363256,512.974060 
	C6.302608,514.394775 3.771044,516.955383 0.999997,519.000000 
M434.886414,270.791260 
	C431.153137,261.486786 427.419830,252.182297 423.487915,242.382751 
	C442.621429,224.395599 448.391907,201.235580 441.742340,175.246658 
	C435.124603,149.381882 418.496246,132.041367 393.114349,123.586143 
	C398.019409,96.376579 389.571930,74.096535 368.852936,56.918316 
	C348.269409,39.852440 324.558075,35.930832 299.075928,43.581982 
	C286.976013,18.688375 267.138794,5.674687 240.169968,4.096933 
	C213.480576,2.535525 191.902008,12.903343 175.747910,34.466381 
	C165.053757,27.950146 153.668762,24.757967 141.659393,25.277458 
	C104.316658,26.892790 74.914017,54.657223 71.536659,91.891418 
	C70.961853,98.228500 69.035240,99.608788 63.289223,100.749893 
	C28.520826,107.654556 4.478281,144.478287 10.432434,180.571426 
	C12.420623,192.623505 16.815716,203.556717 23.986517,213.332199 
	C3.943610,232.366379 -2.176536,255.326477 4.516818,281.443054 
	C11.158954,307.359863 27.760946,324.627136 53.030907,333.259338 
	C41.819267,385.070251 95.815323,430.971405 147.356476,413.460297 
	C169.884171,464.018677 242.278687,465.349548 270.614594,422.735260 
	C294.638031,435.685669 318.379883,434.498077 341.147186,420.067627 
	C363.915283,405.636688 375.069855,384.248077 375.389832,357.485626 
	C391.172241,355.272552 401.131287,351.302673 410.814636,342.757751 
	C432.408386,323.702667 439.808960,299.712799 434.886414,270.791260 
M522.499878,451.988678 
	C515.558716,453.677887 508.509857,455.017334 501.695190,457.117035 
	C472.585968,466.085968 446.812500,480.255524 428.741394,505.747406 
	C406.430176,537.220642 399.915314,572.752441 402.185333,610.520142 
	C402.454010,614.990845 405.254364,615.436218 408.498108,615.843018 
	C424.246765,617.818359 439.964661,618.037415 455.783600,616.167847 
	C513.559753,609.339661 557.530945,569.723022 570.039001,513.049377 
	C574.546997,492.623718 576.851685,471.652313 584.969360,452.106201 
	C586.391602,448.681641 584.579834,447.502045 581.471680,447.453888 
	C561.961914,447.151794 542.534180,447.955750 522.499878,451.988678 
z"/>
<path fill="#0BD293" opacity="1.000000" stroke="none" 
	d="
M0.999997,519.468628 
	C3.771044,516.955383 6.302608,514.394775 9.363256,512.974060 
	C15.633256,510.063538 21.756105,511.095734 26.985796,515.640625 
	C32.522358,520.452087 33.348766,526.703308 31.340569,533.378418 
	C28.566042,542.600769 21.479527,548.604614 14.536976,554.506470 
	C11.124904,557.407043 8.806654,560.396606 7.663047,564.862183 
	C6.191851,570.606934 3.693945,576.088745 1.319147,581.841919 
	C1.000000,561.312439 1.000000,540.624878 0.999997,519.468628 
M16.224987,522.109131 
	C13.814976,518.659485 10.778290,519.818176 9.388511,522.348877 
	C7.977514,524.918274 8.183083,528.375488 7.680671,531.443848 
	C9.563770,531.293701 12.415536,531.845093 13.134735,530.851990 
	C14.793376,528.561768 15.416664,525.521790 16.224987,522.109131 
z"/>
<path fill="#CC2353" opacity="1.000000" stroke="none" 
	d="
M434.948303,271.208740 
	C439.808960,299.712799 432.408386,323.702667 410.814636,342.757751 
	C401.131287,351.302673 391.172241,355.272552 375.389832,357.485626 
	C375.069855,384.248077 363.915283,405.636688 341.147186,420.067627 
	C318.379883,434.498077 294.638031,435.685669 270.614594,422.735260 
	C242.278687,465.349548 169.884171,464.018677 147.356476,413.460297 
	C95.815323,430.971405 41.819267,385.070251 53.030907,333.259338 
	C27.760946,324.627136 11.158954,307.359863 4.516818,281.443054 
	C-2.176536,255.326477 3.943610,232.366379 23.986517,213.332199 
	C16.815716,203.556717 12.420623,192.623505 10.432434,180.571426 
	C4.478281,144.478287 28.520826,107.654556 63.289223,100.749893 
	C69.035240,99.608788 70.961853,98.228500 71.536659,91.891418 
	C74.914017,54.657223 104.316658,26.892790 141.659393,25.277458 
	C153.668762,24.757967 165.053757,27.950146 175.747910,34.466381 
	C191.902008,12.903343 213.480576,2.535525 240.169968,4.096933 
	C267.138794,5.674687 286.976013,18.688375 299.075928,43.581982 
	C324.558075,35.930832 348.269409,39.852440 368.852936,56.918316 
	C389.571930,74.096535 398.019409,96.376579 393.114349,123.586143 
	C418.496246,132.041367 435.124603,149.381882 441.742340,175.246658 
	C448.391907,201.235580 442.621429,224.395599 423.487915,242.382751 
	C427.419830,252.182297 431.153137,261.486786 434.948303,271.208740 
M336.128906,137.257050 
	C336.759918,136.795258 337.333557,136.057938 338.030518,135.912857 
	C349.312164,133.564011 360.614319,131.313812 371.901031,128.988922 
	C376.854401,127.968620 382.348663,128.945251 388.153198,124.429390 
	C383.734619,123.413963 380.662781,122.100868 377.590668,122.100235 
	C357.107269,122.096001 337.782867,127.612755 318.939941,135.105560 
	C317.753876,135.577179 316.961670,137.039261 315.231476,138.155548 
	C309.490387,139.773590 303.749268,141.391617 297.516815,142.619644 
	C300.732941,138.169418 303.743347,133.552017 307.200745,129.297882 
	C322.217468,110.820663 339.312225,94.440720 357.777466,79.437721 
	C359.717499,77.861435 360.871857,75.318214 362.770782,72.699524 
	C356.713226,71.074554 353.129150,73.929802 350.329651,76.561783 
	C335.717163,90.299828 321.458771,104.414253 307.060577,118.380638 
	C304.393005,120.968208 301.649323,123.477333 298.955475,125.082603 
	C298.875671,116.613281 299.850830,107.974754 298.524506,99.705353 
	C293.964905,71.276657 267.843384,49.578171 242.004181,44.073528 
	C242.768875,37.564842 243.723923,31.069155 244.169983,24.538700 
	C244.287582,22.817162 242.832809,20.988226 242.100067,19.208607 
	C240.677475,20.514536 238.362000,21.605303 237.986511,23.163555 
	C236.339203,29.999731 235.253113,36.971149 233.146408,43.831451 
	C227.897537,43.898609 222.544800,43.328297 217.421051,44.163227 
	C206.121689,46.004490 195.900131,50.393486 187.157333,58.194286 
	C179.121765,65.364059 174.142563,74.354202 169.213989,83.822723 
	C168.809906,82.157990 167.776855,80.356117 168.104996,78.851028 
	C170.066299,69.855217 172.156799,60.877262 174.588501,51.998634 
	C175.813950,47.524261 177.849030,43.271633 179.842178,38.073204 
	C177.568604,38.339455 176.424515,38.135166 176.083725,38.566113 
	C172.970383,42.503151 168.963272,46.139862 167.173676,50.641991 
	C161.522156,64.859726 159.773956,79.794762 162.149734,94.983253 
	C162.690247,98.438782 164.679810,101.667664 166.027130,105.935532 
	C166.040817,111.274239 166.054504,116.612938 165.670685,122.351097 
	C164.883362,121.832756 163.836182,121.490875 163.346802,120.770210 
	C151.717270,103.644440 140.164536,86.466553 128.555222,69.327011 
	C125.691628,65.099319 122.679512,60.972237 119.735657,56.798908 
	C118.993317,57.147171 118.250977,57.495434 117.508636,57.843693 
	C118.339157,61.230698 118.445778,65.037788 120.125343,67.932091 
	C127.452881,80.559227 135.181625,92.955772 142.879272,105.364975 
	C146.793945,111.675735 150.951233,117.835999 154.266693,123.954842 
	C153.653961,123.703407 153.031937,123.472336 152.429855,123.197563 
	C135.551270,115.494461 118.111618,113.367912 100.150986,118.524643 
	C94.300285,120.204460 88.731087,122.864708 82.999481,124.283005 
	C81.560616,118.690125 80.353981,113.020576 78.547798,107.548943 
	C77.971809,105.804047 75.804230,104.584534 74.364899,103.124626 
	C73.577049,104.897278 71.865364,106.843758 72.160576,108.412613 
	C73.468666,115.364372 75.352974,122.207703 76.717361,129.671173 
	C67.399956,138.133011 60.306156,148.117310 55.203037,159.982880 
	C49.613579,157.902496 44.069893,155.681259 38.402733,153.840042 
	C36.972130,153.375229 35.146965,154.124832 33.503117,154.316376 
	C34.128571,155.944336 34.300350,158.459030 35.456161,159.050354 
	C41.182560,161.980087 47.168785,164.401962 53.043182,167.848602 
	C52.031445,175.031494 50.556202,182.185318 50.103291,189.403275 
	C49.124039,205.009460 52.638699,219.649124 60.162750,233.001343 
	C54.846806,230.900970 49.134594,229.451996 44.321915,226.524307 
	C39.091934,223.342773 34.698254,218.786469 29.939926,214.829605 
	C29.371508,215.108139 28.803091,215.386688 28.234674,215.665237 
	C28.618635,217.436478 28.589905,219.446167 29.453217,220.940460 
	C35.259262,230.989883 44.626183,236.469635 55.274647,239.806290 
	C58.956142,240.959869 63.110382,240.604752 67.638229,241.252289 
	C80.155418,254.171448 96.097031,260.177368 114.324066,263.449280 
	C112.236298,264.694580 111.129318,265.354828 109.242142,266.015442 
	C99.004379,269.361877 88.883354,273.140686 78.499092,275.944550 
	C65.733139,279.391510 52.730438,281.954865 39.875854,285.088013 
	C38.019604,285.540466 36.418839,287.041138 34.699841,288.056732 
	C34.917259,288.579224 35.134678,289.101746 35.352097,289.624268 
	C36.766632,289.749481 38.214550,290.134491 39.590294,289.957764 
	C48.584244,288.802246 57.689789,288.099335 66.514130,286.143982 
	C77.808990,283.641235 88.873184,280.097565 99.758255,277.628510 
	C97.130783,281.638214 94.214386,285.490143 91.924019,289.683960 
	C79.571495,312.302368 75.934341,335.650330 88.387985,359.321259 
	C92.004532,366.195343 98.105324,371.762360 102.748924,378.544281 
	C99.375710,381.652863 95.886345,384.648804 92.697723,387.936401 
	C91.697662,388.967499 91.506783,390.783417 90.945534,392.240082 
	C92.592285,391.986908 94.556503,392.221161 95.828568,391.392700 
	C100.348770,388.448853 104.633080,385.142761 109.725281,382.065399 
	C121.566879,388.410278 134.048309,392.786346 147.625061,391.837769 
	C155.462646,391.290192 163.198959,389.293213 170.928284,388.652527 
	C169.636688,390.092773 168.518707,391.753693 167.021027,392.931976 
	C162.491165,396.495728 157.684799,399.717773 153.269318,403.411469 
	C151.861313,404.589386 151.338593,406.825592 150.410767,408.577515 
	C152.338120,408.513000 154.506546,409.006287 156.154083,408.294281 
	C167.729065,403.292114 175.868240,394.077637 183.988556,384.913025 
	C185.249374,383.490051 186.000626,381.615570 187.378006,379.414185 
	C196.130569,373.557190 203.864334,366.623413 210.574265,358.524384 
	C211.043076,360.445404 211.834198,362.350555 211.929657,364.289948 
	C212.694138,379.819763 213.311783,395.356781 214.007614,410.890045 
	C214.303528,417.495544 214.573120,424.105896 215.097870,430.694672 
	C215.218216,432.205688 216.340744,433.636841 217.002029,435.104767 
	C217.510880,435.053528 218.019714,435.002289 218.528549,434.951019 
	C219.018341,432.809082 219.918396,430.669922 219.932953,428.524780 
	C220.049057,411.411041 219.996277,394.296173 219.998383,377.181671 
	C219.998688,374.756500 220.015839,372.331329 220.615723,370.243652 
	C220.954697,370.606537 221.355103,370.929077 221.623856,371.338104 
	C239.283234,398.216003 271.523285,407.186127 300.444946,397.263977 
	C312.565674,393.105713 322.886841,385.947113 332.587433,377.281433 
	C337.585022,382.546906 342.507416,387.887878 347.648865,393.008911 
	C348.583679,393.939972 350.414429,393.971527 351.831543,394.418335 
	C351.993683,392.602386 352.704193,390.601776 352.171539,389.019775 
	C351.579102,387.260162 349.941620,385.801178 348.605591,384.352936 
	C344.771057,380.196320 340.859009,376.111206 337.065063,371.300995 
	C347.389526,357.203461 353.418945,341.561920 354.757202,324.079437 
	C357.137848,327.751312 359.788330,331.280426 361.826630,335.133362 
	C364.063721,339.362122 365.584717,343.966522 367.753540,348.236694 
	C368.356018,349.422913 370.150238,350.003876 371.397705,350.862549 
	C371.931763,349.637451 372.884613,348.419830 372.906586,347.185638 
	C372.944031,345.079529 372.939117,342.678802 372.005066,340.898651 
	C367.180847,331.704163 362.131836,322.623749 356.947174,313.626862 
	C356.237366,312.395111 354.329559,311.853729 352.664062,310.330078 
	C347.861572,299.996460 343.059082,289.662872 338.231262,279.274780 
	C341.351685,278.614441 345.175232,277.805298 349.521881,277.565552 
	C365.207062,281.485504 380.978973,285.095459 396.542206,289.451080 
	C404.801727,291.762634 412.635498,295.561462 420.805939,298.249725 
	C422.780914,298.899567 425.328186,297.809814 427.612305,297.520020 
	C426.274963,295.708466 425.323456,293.028961 423.534363,292.233673 
	C415.237396,288.545441 406.880707,284.817047 398.221008,282.160461 
	C385.605225,278.290253 372.711517,275.326019 360.266388,271.382935 
	C363.005646,269.265442 365.884674,267.304565 368.461426,265.005005 
	C385.012543,250.234482 391.358765,230.938507 391.784210,209.544785 
	C391.952759,201.069031 389.951019,192.550095 389.335602,183.371826 
	C389.859436,182.983978 390.343689,182.333817 390.913055,182.247986 
	C398.398712,181.119385 405.897827,180.080078 413.390594,178.997955 
	C418.279236,178.291931 423.208588,177.759979 428.021301,176.702209 
	C429.469421,176.383957 430.586945,174.561646 431.855896,173.428314 
	C430.618011,172.620651 429.384216,171.131210 428.141541,171.123779 
	C422.868378,171.092224 417.547852,171.153275 412.327759,171.825775 
	C403.516418,172.960953 394.768036,174.585281 385.460144,175.559601 
	C380.542877,164.547470 374.276855,154.657776 363.679688,148.092010 
	C355.122253,142.790024 345.868591,139.576202 336.128906,137.257050 
M390.121887,330.579346 
	C388.452148,334.849060 389.573517,337.195831 393.658112,336.394531 
	C397.703766,335.600830 401.606781,333.505127 405.204559,331.362793 
	C406.249786,330.740417 406.031647,327.996307 406.392609,326.224762 
	C404.497284,326.109802 402.440796,325.469208 400.740479,325.990448 
	C397.312500,327.041199 394.078278,328.723999 390.121887,330.579346 
M198.212509,26.026976 
	C197.737549,27.863733 197.262573,29.700491 196.787613,31.537249 
	C197.270523,31.847841 197.753448,32.158432 198.236359,32.469025 
	C202.570587,30.167313 207.041824,28.078373 211.153214,25.430641 
	C212.343857,24.663870 212.502335,22.294388 213.133987,20.659637 
	C211.453995,20.123386 209.324493,18.665604 208.178680,19.224497 
	C204.806610,20.869278 201.824722,23.313948 198.212509,26.026976 
M30.605265,194.817673 
	C29.740334,193.224274 29.119570,191.408173 27.933403,190.107788 
	C26.980091,189.062653 25.342093,188.642059 24.007906,187.944351 
	C23.348890,189.262085 21.846186,190.865387 22.178635,191.847519 
	C23.532547,195.847260 25.219788,199.789001 27.329069,203.437042 
	C27.815525,204.278397 30.858713,204.528732 31.983822,203.839905 
	C32.926861,203.262543 33.192379,200.870346 33.010220,199.372650 
	C32.844837,198.012939 31.671188,196.775864 30.605265,194.817673 
M81.271835,82.063835 
	C81.397026,84.330109 81.247124,86.663544 81.776375,88.831161 
	C82.003151,89.759979 83.582291,90.782440 84.661758,90.931580 
	C85.392639,91.032562 86.813026,89.834549 87.080292,88.959511 
	C88.227081,85.204857 89.305740,81.388908 89.848076,77.516701 
	C89.995941,76.460945 88.404236,74.607407 87.201042,74.108604 
	C86.379227,73.767906 84.395378,74.838150 83.734009,75.818993 
	C82.661880,77.408989 82.248749,79.443352 81.271835,82.063835 
M247.081039,432.703644 
	C247.847641,432.074341 249.084885,431.568573 249.288895,430.791534 
	C249.812927,428.795502 249.878571,426.679138 250.127457,424.610870 
	C248.197449,424.919861 246.116577,424.876801 244.374130,425.623474 
	C241.985107,426.647217 239.758850,428.142700 237.653702,429.694855 
	C236.724640,430.379822 235.488510,432.051147 235.761688,432.656433 
	C236.250885,433.740448 237.852280,435.118256 238.854797,435.019043 
	C241.408249,434.766296 243.887772,433.766357 247.081039,432.703644 
M374.244995,98.221649 
	C374.878876,100.080986 375.197235,102.147537 376.241425,103.737419 
	C377.161102,105.137802 378.891968,106.005455 380.264618,107.108368 
	C381.233185,105.822327 383.204346,104.323738 382.985077,103.289513 
	C382.287170,99.997322 381.130341,96.662491 379.398651,93.798996 
	C378.716248,92.670609 376.048340,92.742928 374.284576,92.268486 
	C374.139313,94.019524 373.994019,95.770561 374.244995,98.221649 
M106.053368,405.693848 
	C107.980766,406.125916 109.996391,407.111115 111.808762,406.822052 
	C113.370895,406.572876 114.701515,404.872314 116.134514,403.813446 
	C114.978790,402.497314 114.040001,400.807281 112.604027,399.974152 
	C111.268364,399.199219 109.386673,399.055237 107.775139,399.148407 
	C105.962181,399.253204 104.182549,399.934387 102.388420,400.364838 
	C103.382889,402.011719 104.377350,403.658630 106.053368,405.693848 
z"/>
<path fill="#09D193" opacity="1.000000" stroke="none" 
	d="
M522.921082,451.923828 
	C542.534180,447.955750 561.961914,447.151794 581.471680,447.453888 
	C584.579834,447.502045 586.391602,448.681641 584.969360,452.106201 
	C576.851685,471.652313 574.546997,492.623718 570.039001,513.049377 
	C557.530945,569.723022 513.559753,609.339661 455.783600,616.167847 
	C439.964661,618.037415 424.246765,617.818359 408.498108,615.843018 
	C405.254364,615.436218 402.454010,614.990845 402.185333,610.520142 
	C399.915314,572.752441 406.430176,537.220642 428.741394,505.747406 
	C446.812500,480.255524 472.585968,466.085968 501.695190,457.117035 
	C508.509857,455.017334 515.558716,453.677887 522.921082,451.923828 
M527.514404,493.997040 
	C523.118347,498.379303 518.722290,502.761597 514.025208,507.443939 
	C514.025208,498.049133 514.116150,489.654572 513.934204,481.265961 
	C513.904358,479.892517 512.671875,478.545166 511.995239,477.185760 
	C510.706055,478.049713 509.224182,478.733917 508.193359,479.838898 
	C507.471008,480.613190 507.129425,481.938782 507.020416,483.057404 
	C506.282501,490.629211 505.441132,498.200653 505.050842,505.793701 
	C504.718872,512.252197 503.661621,517.959778 498.186371,522.483582 
	C491.794098,527.765076 486.029449,533.804077 479.945343,539.463623 
	C479.324829,540.040833 478.381775,540.271301 477.068207,540.919312 
	C476.684937,536.403870 476.117462,532.465881 476.061523,528.520630 
	C475.919830,518.528076 476.082062,508.531219 475.947662,498.538452 
	C475.917053,496.263397 475.479004,493.878632 474.644745,491.776001 
	C474.196716,490.646759 472.580170,489.508514 471.353424,489.332611 
	C470.579620,489.221649 469.063904,490.728302 468.733704,491.777649 
	C467.899353,494.429443 467.054413,497.238281 467.084320,499.974670 
	C467.235046,513.764160 467.360046,527.567688 468.136017,541.330078 
	C468.475922,547.358459 466.885468,551.658875 462.202148,555.443909 
	C456.611816,559.961914 451.487946,565.057068 445.014893,570.945740 
	C445.014893,562.505798 445.084625,555.589233 444.988007,548.674988 
	C444.932465,544.703308 444.919617,540.680603 444.238678,536.794617 
	C443.991180,535.382080 441.860291,534.299561 440.588745,533.066406 
	C439.719666,534.444824 438.199127,535.771729 438.085388,537.209900 
	C437.236603,547.942932 435.917358,558.721741 436.257446,569.438293 
	C436.507172,577.307739 433.385071,581.949463 427.569794,586.430542 
	C421.316559,591.249084 415.679504,596.918823 410.153290,602.587402 
	C408.989716,603.780884 409.475891,606.582764 409.201904,608.643494 
	C411.258881,608.555176 413.912598,609.261108 415.269836,608.241394 
	C421.213104,603.775879 427.103149,599.139221 432.403015,593.942993 
	C439.017426,587.457764 445.286163,583.501648 455.401978,587.256836 
	C462.311249,589.821655 470.390015,589.330139 477.968750,589.903503 
	C479.207245,589.997131 480.563995,588.527100 481.866089,587.779846 
	C480.900696,586.563477 480.176697,584.827454 478.917908,584.242676 
	C476.545868,583.140747 473.890350,582.592529 471.308472,582.010010 
	C464.958649,580.577332 458.583801,579.255798 451.219696,577.675049 
	C459.440674,570.188232 466.591705,563.582397 473.882080,557.134216 
	C475.014526,556.132568 476.854523,555.192749 478.247070,555.342590 
	C487.604614,556.348816 496.920532,557.735107 506.269073,558.835571 
	C511.035645,559.396606 515.852661,559.966675 520.624756,559.818420 
	C522.427917,559.762451 524.168640,557.694214 525.937866,556.543213 
	C524.583130,555.177795 523.457397,553.182129 521.822327,552.588257 
	C519.073792,551.589844 516.004211,551.465759 513.065002,551.003418 
	C504.487061,549.654114 495.906830,548.319397 487.042969,546.934448 
	C487.513519,545.628418 487.546600,545.060303 487.847626,544.770874 
	C495.037506,537.859558 502.202911,530.920410 509.539856,524.167725 
	C510.413696,523.363403 512.283997,523.281494 513.636780,523.417603 
	C521.198486,524.178406 528.727722,525.310486 536.300842,525.883972 
	C539.376770,526.116943 542.576477,525.450195 545.631104,524.785278 
	C546.551208,524.584961 547.613281,523.082825 547.779968,522.043823 
	C547.896484,521.317932 546.761658,520.071960 545.891479,519.593079 
	C544.942444,519.070862 543.654846,519.159241 542.513184,518.992676 
	C535.096680,517.910522 527.679810,516.831360 518.874146,515.549011 
	C522.241089,512.379395 524.566772,510.314240 526.751892,508.109772 
	C533.409302,501.393097 540.117126,494.719025 546.521606,487.767029 
	C547.459595,486.748901 546.853516,484.308380 546.961914,482.525970 
	C545.059631,482.414703 542.550842,481.471832 541.362122,482.338898 
	C536.688477,485.747925 532.430420,489.726685 527.514404,493.997040 
M456.338684,602.362793 
	C452.543488,602.465027 448.700806,602.263062 444.980377,602.843994 
	C443.772400,603.032654 442.884277,605.269592 441.849823,606.569641 
	C443.033875,607.485718 444.264130,609.241272 445.394318,609.179016 
	C451.824066,608.824829 458.239197,608.109924 464.631989,607.301697 
	C465.414154,607.202820 466.033051,605.812134 466.727600,605.020081 
	C465.889404,604.345520 465.133057,603.266296 464.196686,603.076904 
	C461.931671,602.618652 459.582672,602.575378 456.338684,602.362793 
M565.322571,460.399841 
	C564.863037,459.393555 564.664124,458.069763 563.896057,457.439301 
	C561.383423,455.376831 548.130432,456.067657 545.750732,458.415680 
	C544.946960,459.208801 544.284363,460.810822 544.524353,461.811188 
	C544.771179,462.840454 546.321838,464.434265 547.089172,464.322357 
	C553.128174,463.441437 559.116150,462.210663 565.322571,460.399841 
M532.723328,460.406891 
	C531.446777,461.673767 530.170227,462.940674 528.893677,464.207550 
	C530.138733,465.333344 531.466431,467.455933 532.610229,467.361115 
	C534.524536,467.202423 537.465820,466.005798 537.937500,464.574554 
	C539.032288,461.252869 536.122986,460.598999 532.723328,460.406891 
z"/>
<path fill="#F3FDFA" opacity="1.000000" stroke="none" 
	d="
M16.342499,522.447510 
	C15.416664,525.521790 14.793376,528.561768 13.134735,530.851990 
	C12.415536,531.845093 9.563770,531.293701 7.680672,531.443848 
	C8.183083,528.375488 7.977514,524.918274 9.388511,522.348877 
	C10.778290,519.818176 13.814976,518.659485 16.342499,522.447510 
z"/>
<path fill="#FF2B6E" opacity="1.000000" stroke="none" 
	d="
M103.067329,377.928558 
	C98.105324,371.762360 92.004532,366.195343 88.387985,359.321259 
	C75.934341,335.650330 79.571495,312.302368 91.924019,289.683960 
	C94.214386,285.490143 97.130783,281.638214 100.195305,277.165771 
	C103.762352,273.140381 106.892349,269.577759 110.022354,266.015106 
	C111.129318,265.354828 112.236298,264.694580 114.324066,263.449280 
	C96.097031,260.177368 80.155418,254.171448 67.184448,240.803131 
	C64.815872,237.904190 62.901070,235.454437 60.986267,233.004669 
	C52.638699,219.649124 49.124039,205.009460 50.103291,189.403275 
	C50.556202,182.185318 52.031445,175.031494 53.310654,167.201248 
	C54.372890,164.364105 55.167656,162.174301 55.962425,159.984512 
	C60.306156,148.117310 67.399956,138.133011 77.207642,129.318756 
	C79.476326,127.669739 81.254730,126.373138 83.033142,125.076538 
	C88.731087,122.864708 94.300285,120.204460 100.150986,118.524643 
	C118.111618,113.367912 135.551270,115.494461 152.429855,123.197563 
	C153.031937,123.472336 153.653961,123.703407 154.837372,124.275085 
	C159.272018,126.730217 163.136017,128.865112 167.053238,131.138962 
	C167.193375,131.326157 167.280258,131.374390 167.367142,131.422638 
	C167.244766,131.281754 167.122375,131.140884 167.009583,130.560791 
	C166.702179,127.398262 166.385178,124.674950 166.068192,121.951645 
	C166.054504,116.612938 166.040817,111.274239 166.018738,105.042114 
	C167.337128,97.431587 168.663910,90.714470 169.990692,83.997353 
	C174.142563,74.354202 179.121765,65.364059 187.157333,58.194286 
	C195.900131,50.393486 206.121689,46.004490 217.421051,44.163227 
	C222.544800,43.328297 227.897537,43.898609 233.977966,43.897217 
	C237.211700,44.296547 239.613876,44.630108 242.016068,44.963669 
	C267.843384,49.578171 293.964905,71.276657 298.524506,99.705353 
	C299.850830,107.974754 298.875671,116.613281 298.798828,125.900208 
	C297.422089,132.473801 296.201996,138.229797 294.841858,144.041168 
	C294.805786,144.070145 294.909790,144.043732 295.350525,144.017715 
	C296.460907,143.681961 297.234528,143.345810 298.008179,143.009659 
	C303.749268,141.391617 309.490387,139.773590 316.078918,138.097260 
	C323.282562,138.014618 329.638733,137.990280 335.994904,137.965927 
	C345.868591,139.576202 355.122253,142.790024 363.679688,148.092010 
	C374.276855,154.657776 380.542877,164.547470 385.766663,176.148621 
	C387.027924,179.175385 387.982666,181.613098 388.937408,184.050827 
	C389.951019,192.550095 391.952759,201.069031 391.784210,209.544785 
	C391.358765,230.938507 385.012543,250.234482 368.461426,265.005005 
	C365.884674,267.304565 363.005646,269.265442 359.747345,271.721252 
	C355.818451,273.705078 352.408630,275.350616 348.998779,276.996124 
	C345.175232,277.805298 341.351685,278.614441 338.231262,279.274780 
	C343.059082,289.662872 347.861572,299.996460 352.824554,311.092194 
	C353.347778,315.898926 353.710541,319.943512 354.073303,323.988129 
	C353.418945,341.561920 347.389526,357.203461 336.728790,371.786377 
	C334.923340,373.843048 333.454163,375.414307 331.984985,376.985565 
	C322.886841,385.947113 312.565674,393.105713 300.444946,397.263977 
	C271.523285,407.186127 239.283234,398.216003 221.623856,371.338104 
	C221.355103,370.929077 220.954697,370.606537 220.278473,369.722961 
	C217.706512,364.215912 215.471802,359.229523 212.998703,353.711182 
	C211.689331,355.589722 210.847260,356.797852 210.005173,358.005981 
	C203.864334,366.623413 196.130569,373.557190 186.829773,379.731384 
	C181.181320,382.681946 176.081100,385.315277 170.980865,387.948608 
	C163.198959,389.293213 155.462646,391.290192 147.625061,391.837769 
	C134.048309,392.786346 121.566879,388.410278 109.174881,381.753662 
	C106.772095,380.270813 104.919716,379.099670 103.067329,377.928558 
M134.559464,200.018021 
	C131.826004,199.426407 129.073334,198.911270 126.362305,198.230423 
	C112.273407,194.692093 98.210129,191.049362 84.090164,187.640900 
	C82.663681,187.296555 80.917244,188.277679 79.319298,188.643677 
	C80.354370,190.086899 81.069969,192.210175 82.473335,192.869461 
	C98.639870,200.464371 116.125793,203.419083 133.347504,207.849396 
	C129.624908,223.860168 129.389130,239.912476 131.896927,256.006500 
	C127.122650,256.408844 122.348373,256.811218 117.574097,257.213593 
	C117.575645,257.694733 117.577194,258.175903 117.578743,258.657074 
	C123.019089,259.429688 128.459427,260.202301 134.285660,261.607574 
	C138.431488,275.298492 145.619690,287.115753 155.772858,297.569794 
	C154.805252,298.907928 153.952271,300.349579 152.852142,301.568054 
	C142.850067,312.646454 132.639420,323.542267 122.858009,334.811096 
	C119.208809,339.015198 116.532516,344.063751 113.412598,348.727264 
	C114.018448,349.298401 114.624298,349.869568 115.230148,350.440735 
	C116.960304,349.325653 119.023178,348.515717 120.369125,347.048279 
	C133.820358,332.382690 147.156097,317.611145 160.504486,302.851501 
	C160.817093,302.505859 160.898117,301.950836 161.750793,301.762238 
	C169.268387,306.355713 176.785980,310.949219 184.171707,316.343018 
	C183.665253,317.544403 183.380951,318.913849 182.618561,319.921631 
	C173.121735,332.475006 163.529480,344.956116 154.025162,357.503876 
	C151.606400,360.697174 148.193680,363.555695 149.570053,369.524200 
	C152.270554,367.742676 155.046249,366.733765 156.592178,364.761108 
	C168.543076,349.511200 180.256134,334.074860 192.840103,318.799652 
	C201.572952,320.326447 210.305786,321.853210 219.028214,324.170715 
	C217.040375,332.289062 215.052536,340.407410 213.064697,348.525757 
	C213.707657,348.735992 214.350616,348.946259 214.993576,349.156494 
	C222.316040,342.277618 224.413254,332.953400 226.883377,323.175873 
	C236.572479,321.844330 246.261597,320.512787 256.057465,319.853363 
	C269.823608,341.780457 292.826080,366.940582 300.244965,367.422180 
	C299.131653,365.572723 298.384888,363.958832 297.309753,362.605896 
	C289.572998,352.870148 281.619598,343.302551 274.048462,333.440887 
	C270.048126,328.230316 266.676727,322.536835 263.668182,316.727905 
	C271.046844,313.098480 278.425507,309.469055 286.428375,306.164276 
	C288.329407,308.019348 290.437775,309.706573 292.097229,311.757141 
	C301.674927,323.592255 311.080811,335.567200 320.749603,347.326477 
	C321.783234,348.583649 324.140869,348.752228 325.884308,349.425812 
	C325.821960,347.654083 326.440552,345.406433 325.588226,344.186768 
	C319.432556,335.378387 313.225677,326.581757 306.535309,318.179321 
	C301.936493,312.403595 296.535828,307.266327 291.866608,301.252594 
	C301.720062,292.965424 309.577911,283.043793 316.233917,272.499878 
	C320.671265,275.422882 323.420227,280.874664 329.994202,282.120911 
	C329.944458,273.383575 323.745178,270.036011 318.861298,265.116150 
	C324.564880,251.627640 325.812836,237.476364 325.937286,223.010101 
	C339.453613,219.884430 353.924347,219.945312 365.879913,211.211731 
	C363.248047,210.428085 360.674835,210.057709 358.245148,210.491333 
	C346.874817,212.520462 335.544067,214.771118 323.985352,216.163574 
	C321.972443,209.110489 319.959564,202.057404 318.738098,195.013092 
	C331.275177,190.766586 343.850189,186.626312 356.314697,182.176514 
	C358.582520,181.366898 360.398865,179.292526 362.423645,177.802002 
	C354.993713,174.858459 348.901123,177.328400 342.888000,179.242249 
	C333.445679,182.247559 324.173553,185.787720 314.325592,188.649948 
	C308.034393,176.992905 298.927490,167.790298 288.959320,158.674011 
	C290.868622,156.713867 292.913788,154.862946 294.619934,152.739563 
	C295.297455,151.896378 295.797638,150.071335 295.340363,149.376129 
	C294.813293,148.574707 292.755951,147.854324 292.027649,148.268173 
	C288.560211,150.238480 285.318756,152.606384 281.339569,154.675934 
	C269.861145,149.505905 258.382721,144.335892 246.945053,138.319672 
	C249.466171,127.877602 252.389542,117.511749 254.387070,106.970459 
	C256.132111,97.761635 256.932495,88.365173 257.877533,79.024017 
	C257.998840,77.824905 256.479370,76.459793 255.719971,75.171585 
	C254.528015,76.154587 252.975845,76.926178 252.241348,78.177673 
	C251.442963,79.538002 251.359848,81.335617 251.041931,82.957672 
	C248.597885,95.427444 246.213470,107.909050 243.723480,120.369591 
	C242.560272,126.190559 241.204224,131.973007 239.109360,137.846329 
	C234.087402,137.514374 229.065445,137.182404 224.003433,135.934143 
	C223.663086,118.162964 223.360748,100.390869 222.935547,82.621719 
	C222.880768,80.333038 222.422440,77.982834 221.707306,75.806969 
	C221.254196,74.428360 219.979004,73.319946 219.072510,72.090347 
	C218.058151,73.393562 216.249344,74.649025 216.167664,76.008293 
	C215.823502,81.735321 215.886444,87.495430 215.998505,93.239571 
	C216.283508,107.848175 216.674820,122.454697 216.276016,137.357224 
	C202.833649,139.028732 190.173935,143.165222 178.099319,148.502884 
	C177.880798,143.715256 178.423218,138.673126 173.695999,134.878067 
	C172.974075,136.017456 172.015823,136.825760 172.052109,137.586670 
	C172.289597,142.569077 172.742157,147.541260 172.670563,152.966721 
	C165.133789,159.659668 157.597031,166.352600 149.378693,172.736649 
	C130.724548,168.012939 113.007980,159.485062 93.161118,158.683685 
	C94.090080,160.743835 95.311264,162.281311 96.885773,162.863937 
	C108.515816,167.167465 120.212784,171.290482 131.896393,175.448685 
	C136.240036,176.994583 140.604248,178.482651 144.754623,180.663696 
	C141.635941,187.195084 138.517242,193.726486 134.559464,200.018021 
M126.063805,136.301193 
	C129.658035,136.851196 133.242325,137.694962 136.851044,137.817139 
	C138.459290,137.871582 140.116714,136.473557 141.751816,135.734756 
	C140.768372,134.189377 140.035751,131.594589 138.756027,131.288727 
	C134.317871,130.227936 129.689484,129.586533 125.133759,129.588120 
	C123.425018,129.588715 121.717049,131.787430 120.008728,132.983978 
	C121.741531,134.082748 123.474327,135.181503 126.063805,136.301193 
M377.448608,205.208511 
	C376.471680,205.951935 374.756927,206.593323 374.637726,207.455338 
	C373.871368,212.997849 373.313385,218.582458 373.067596,224.169983 
	C373.028656,225.055450 375.128998,226.937576 375.864838,226.764313 
	C377.338623,226.417328 379.462952,225.151825 379.708740,223.939178 
	C380.553436,219.771530 381.056549,215.454971 380.959930,211.211792 
	C380.915558,209.263062 379.174530,207.352966 377.448608,205.208511 
M332.710327,365.112885 
	C332.460938,363.262573 332.211578,361.412231 331.962189,359.561920 
	C330.221069,359.996185 328.172272,359.995239 326.806641,360.960632 
	C324.398712,362.662842 322.253815,364.820221 320.302765,367.052704 
	C319.225555,368.285248 318.766174,370.057800 318.028320,371.586914 
	C319.809784,371.935913 322.077484,373.146179 323.278992,372.467865 
	C326.519989,370.638245 329.306793,368.004059 332.710327,365.112885 
M232.513992,51.900150 
	C230.789902,55.194584 232.310181,56.787628 235.436035,57.699566 
	C237.971237,58.439194 240.403000,59.748856 242.973663,60.077023 
	C244.741806,60.302738 246.669067,59.281960 248.525192,58.818314 
	C247.697800,57.049393 247.236084,54.122108 245.975830,53.724247 
	C241.854141,52.423038 237.441666,52.042892 232.513992,51.900150 
M92.435295,313.942169 
	C91.232231,317.991638 89.731712,321.989960 89.020851,326.124054 
	C88.826378,327.255005 91.001328,328.793365 92.088943,330.144775 
	C93.348877,328.800354 95.283012,327.646667 95.728592,326.071838 
	C96.660072,322.779663 96.890312,319.273773 97.235924,315.838318 
	C97.384399,314.362366 97.102867,312.843140 97.016701,311.343597 
	C95.648041,312.015930 94.279373,312.688293 92.435295,313.942169 
z"/>
<path fill="#DA2458" opacity="1.000000" stroke="none" 
	d="
M294.981934,143.985794 
	C296.201996,138.229797 297.422089,132.473801 298.791443,126.370232 
	C301.649323,123.477333 304.393005,120.968208 307.060577,118.380638 
	C321.458771,104.414253 335.717163,90.299828 350.329651,76.561783 
	C353.129150,73.929802 356.713226,71.074554 362.770782,72.699524 
	C360.871857,75.318214 359.717499,77.861435 357.777466,79.437721 
	C339.312225,94.440720 322.217468,110.820663 307.200745,129.297882 
	C303.743347,133.552017 300.732941,138.169418 297.762512,142.814651 
	C297.234528,143.345810 296.460907,143.681961 295.343384,144.009048 
	C294.999542,143.999985 294.981903,143.985794 294.981934,143.985794 
z"/>
<path fill="#DA2458" opacity="1.000000" stroke="none" 
	d="
M167.009583,130.560791 
	C163.136017,128.865112 159.272018,126.730217 155.203430,124.329811 
	C150.951233,117.835999 146.793945,111.675735 142.879272,105.364975 
	C135.181625,92.955772 127.452881,80.559227 120.125343,67.932091 
	C118.445778,65.037788 118.339157,61.230698 117.508636,57.843693 
	C118.250977,57.495434 118.993317,57.147171 119.735657,56.798908 
	C122.679512,60.972237 125.691628,65.099319 128.555222,69.327011 
	C140.164536,86.466553 151.717270,103.644440 163.346802,120.770210 
	C163.836182,121.490875 164.883362,121.832756 165.869446,122.151367 
	C166.385178,124.674950 166.702179,127.398262 167.009583,130.560791 
z"/>
<path fill="#DA2458" opacity="1.000000" stroke="none" 
	d="
M349.260315,277.280823 
	C352.408630,275.350616 355.818451,273.705078 359.582306,272.017517 
	C372.711517,275.326019 385.605225,278.290253 398.221008,282.160461 
	C406.880707,284.817047 415.237396,288.545441 423.534363,292.233673 
	C425.323456,293.028961 426.274963,295.708466 427.612305,297.520020 
	C425.328186,297.809814 422.780914,298.899567 420.805939,298.249725 
	C412.635498,295.561462 404.801727,291.762634 396.542206,289.451080 
	C380.978973,285.095459 365.207062,281.485504 349.260315,277.280823 
z"/>
<path fill="#DA2458" opacity="1.000000" stroke="none" 
	d="
M109.632248,266.015259 
	C106.892349,269.577759 103.762352,273.140381 100.334564,276.852722 
	C88.873184,280.097565 77.808990,283.641235 66.514130,286.143982 
	C57.689789,288.099335 48.584244,288.802246 39.590294,289.957764 
	C38.214550,290.134491 36.766632,289.749481 35.352097,289.624268 
	C35.134678,289.101746 34.917259,288.579224 34.699841,288.056732 
	C36.418839,287.041138 38.019604,285.540466 39.875854,285.088013 
	C52.730438,281.954865 65.733139,279.391510 78.499092,275.944550 
	C88.883354,273.140686 99.004379,269.361877 109.632248,266.015259 
z"/>
<path fill="#DA2458" opacity="1.000000" stroke="none" 
	d="
M210.289719,358.265198 
	C210.847260,356.797852 211.689331,355.589722 212.998703,353.711182 
	C215.471802,359.229523 217.706512,364.215912 219.983215,369.554230 
	C220.015839,372.331329 219.998688,374.756500 219.998383,377.181671 
	C219.996277,394.296173 220.049057,411.411041 219.932953,428.524780 
	C219.918396,430.669922 219.018341,432.809082 218.528549,434.951019 
	C218.019714,435.002289 217.510880,435.053528 217.002029,435.104767 
	C216.340744,433.636841 215.218216,432.205688 215.097870,430.694672 
	C214.573120,424.105896 214.303528,417.495544 214.007614,410.890045 
	C213.311783,395.356781 212.694138,379.819763 211.929657,364.289948 
	C211.834198,362.350555 211.043076,360.445404 210.289719,358.265198 
z"/>
<path fill="#C3204E" opacity="1.000000" stroke="none" 
	d="
M336.061890,137.611481 
	C329.638733,137.990280 323.282562,138.014618 316.456299,138.039764 
	C316.961670,137.039261 317.753876,135.577179 318.939941,135.105560 
	C337.782867,127.612755 357.107269,122.096001 377.590668,122.100235 
	C380.662781,122.100868 383.734619,123.413963 388.153198,124.429390 
	C382.348663,128.945251 376.854401,127.968620 371.901031,128.988922 
	C360.614319,131.313812 349.312164,133.564011 338.030518,135.912857 
	C337.333557,136.057938 336.759918,136.795258 336.061890,137.611481 
z"/>
<path fill="#C3204E" opacity="1.000000" stroke="none" 
	d="
M169.602341,83.910034 
	C168.663910,90.714470 167.337128,97.431587 166.006378,104.574783 
	C164.679810,101.667664 162.690247,98.438782 162.149734,94.983253 
	C159.773956,79.794762 161.522156,64.859726 167.173676,50.641991 
	C168.963272,46.139862 172.970383,42.503151 176.083725,38.566113 
	C176.424515,38.135166 177.568604,38.339455 179.842178,38.073204 
	C177.849030,43.271633 175.813950,47.524261 174.588501,51.998634 
	C172.156799,60.877262 170.066299,69.855217 168.104996,78.851028 
	C167.776855,80.356117 168.809906,82.157990 169.602341,83.910034 
z"/>
<path fill="#DA2458" opacity="1.000000" stroke="none" 
	d="
M389.136505,183.711334 
	C387.982666,181.613098 387.027924,179.175385 386.033203,176.370773 
	C394.768036,174.585281 403.516418,172.960953 412.327759,171.825775 
	C417.547852,171.153275 422.868378,171.092224 428.141541,171.123779 
	C429.384216,171.131210 430.618011,172.620651 431.855896,173.428314 
	C430.586945,174.561646 429.469421,176.383957 428.021301,176.702209 
	C423.208588,177.759979 418.279236,178.291931 413.390594,178.997955 
	C405.897827,180.080078 398.398712,181.119385 390.913055,182.247986 
	C390.343689,182.333817 389.859436,182.983978 389.136505,183.711334 
z"/>
<path fill="#C3204E" opacity="1.000000" stroke="none" 
	d="
M60.574509,233.003006 
	C62.901070,235.454437 64.815872,237.904190 66.889679,240.646362 
	C63.110382,240.604752 58.956142,240.959869 55.274647,239.806290 
	C44.626183,236.469635 35.259262,230.989883 29.453217,220.940460 
	C28.589905,219.446167 28.618635,217.436478 28.234674,215.665237 
	C28.803091,215.386688 29.371508,215.108139 29.939926,214.829605 
	C34.698254,218.786469 39.091934,223.342773 44.321915,226.524307 
	C49.134594,229.451996 54.846806,230.900970 60.574509,233.003006 
z"/>
<path fill="#C3204E" opacity="1.000000" stroke="none" 
	d="
M354.415222,324.033783 
	C353.710541,319.943512 353.347778,315.898926 352.980713,311.423492 
	C354.329559,311.853729 356.237366,312.395111 356.947174,313.626862 
	C362.131836,322.623749 367.180847,331.704163 372.005066,340.898651 
	C372.939117,342.678802 372.944031,345.079529 372.906586,347.185638 
	C372.884613,348.419830 371.931763,349.637451 371.397705,350.862549 
	C370.150238,350.003876 368.356018,349.422913 367.753540,348.236694 
	C365.584717,343.966522 364.063721,339.362122 361.826630,335.133362 
	C359.788330,331.280426 357.137848,327.751312 354.415222,324.033783 
z"/>
<path fill="#C3204E" opacity="1.000000" stroke="none" 
	d="
M170.954590,388.300598 
	C176.081100,385.315277 181.181320,382.681946 186.634521,379.999237 
	C186.000626,381.615570 185.249374,383.490051 183.988556,384.913025 
	C175.868240,394.077637 167.729065,403.292114 156.154083,408.294281 
	C154.506546,409.006287 152.338120,408.513000 150.410767,408.577515 
	C151.338593,406.825592 151.861313,404.589386 153.269318,403.411469 
	C157.684799,399.717773 162.491165,396.495728 167.021027,392.931976 
	C168.518707,391.753693 169.636688,390.092773 170.954590,388.300598 
z"/>
<path fill="#DA2458" opacity="1.000000" stroke="none" 
	d="
M332.286194,377.133484 
	C333.454163,375.414307 334.923340,373.843048 336.684998,372.134857 
	C340.859009,376.111206 344.771057,380.196320 348.605591,384.352936 
	C349.941620,385.801178 351.579102,387.260162 352.171539,389.019775 
	C352.704193,390.601776 351.993683,392.602386 351.831543,394.418335 
	C350.414429,393.971527 348.583679,393.939972 347.648865,393.008911 
	C342.507416,387.887878 337.585022,382.546906 332.286194,377.133484 
z"/>
<path fill="#DA2458" opacity="1.000000" stroke="none" 
	d="
M242.010132,44.518600 
	C239.613876,44.630108 237.211700,44.296547 234.386505,43.928253 
	C235.253113,36.971149 236.339203,29.999731 237.986511,23.163555 
	C238.362000,21.605303 240.677475,20.514536 242.100067,19.208607 
	C242.832809,20.988226 244.287582,22.817162 244.169983,24.538700 
	C243.723923,31.069155 242.768875,37.564842 242.010132,44.518600 
z"/>
<path fill="#C3204E" opacity="1.000000" stroke="none" 
	d="
M83.016312,124.679771 
	C81.254730,126.373138 79.476326,127.669739 77.363358,129.028305 
	C75.352974,122.207703 73.468666,115.364372 72.160576,108.412613 
	C71.865364,106.843758 73.577049,104.897278 74.364899,103.124626 
	C75.804230,104.584534 77.971809,105.804047 78.547798,107.548943 
	C80.353981,113.020576 81.560616,118.690125 83.016312,124.679771 
z"/>
<path fill="#DA2458" opacity="1.000000" stroke="none" 
	d="
M55.582729,159.983704 
	C55.167656,162.174301 54.372890,164.364105 53.320778,166.778351 
	C47.168785,164.401962 41.182560,161.980087 35.456161,159.050354 
	C34.300350,158.459030 34.128571,155.944336 33.503117,154.316376 
	C35.146965,154.124832 36.972130,153.375229 38.402733,153.840042 
	C44.069893,155.681259 49.613579,157.902496 55.582729,159.983704 
z"/>
<path fill="#FDF6F8" opacity="1.000000" stroke="none" 
	d="
M390.442993,330.362701 
	C394.078278,328.723999 397.312500,327.041199 400.740479,325.990448 
	C402.440796,325.469208 404.497284,326.109802 406.392609,326.224762 
	C406.031647,327.996307 406.249786,330.740417 405.204559,331.362793 
	C401.606781,333.505127 397.703766,335.600830 393.658112,336.394531 
	C389.573517,337.195831 388.452148,334.849060 390.442993,330.362701 
z"/>
<path fill="#FDF6F8" opacity="1.000000" stroke="none" 
	d="
M198.451294,25.736227 
	C201.824722,23.313948 204.806610,20.869278 208.178680,19.224497 
	C209.324493,18.665604 211.453995,20.123386 213.133987,20.659637 
	C212.502335,22.294388 212.343857,24.663870 211.153214,25.430641 
	C207.041824,28.078373 202.570587,30.167313 198.236359,32.469025 
	C197.753448,32.158432 197.270523,31.847841 196.787613,31.537249 
	C197.262573,29.700491 197.737549,27.863733 198.451294,25.736227 
z"/>
<path fill="#FDF5F7" opacity="1.000000" stroke="none" 
	d="
M30.773655,195.151199 
	C31.671188,196.775864 32.844837,198.012939 33.010220,199.372650 
	C33.192379,200.870346 32.926861,203.262543 31.983822,203.839905 
	C30.858713,204.528732 27.815525,204.278397 27.329069,203.437042 
	C25.219788,199.789001 23.532547,195.847260 22.178635,191.847519 
	C21.846186,190.865387 23.348890,189.262085 24.007906,187.944351 
	C25.342093,188.642059 26.980091,189.062653 27.933403,190.107788 
	C29.119570,191.408173 29.740334,193.224274 30.773655,195.151199 
z"/>
<path fill="#FDF5F7" opacity="1.000000" stroke="none" 
	d="
M81.414612,81.676971 
	C82.248749,79.443352 82.661880,77.408989 83.734009,75.818993 
	C84.395378,74.838150 86.379227,73.767906 87.201042,74.108604 
	C88.404236,74.607407 89.995941,76.460945 89.848076,77.516701 
	C89.305740,81.388908 88.227081,85.204857 87.080292,88.959511 
	C86.813026,89.834549 85.392639,91.032562 84.661758,90.931580 
	C83.582291,90.782440 82.003151,89.759979 81.776375,88.831161 
	C81.247124,86.663544 81.397026,84.330109 81.414612,81.676971 
z"/>
<path fill="#DA2458" opacity="1.000000" stroke="none" 
	d="
M102.908127,378.236420 
	C104.919716,379.099670 106.772095,380.270813 108.815598,381.707886 
	C104.633080,385.142761 100.348770,388.448853 95.828568,391.392700 
	C94.556503,392.221161 92.592285,391.986908 90.945534,392.240112 
	C91.506783,390.783417 91.697662,388.967499 92.697723,387.936401 
	C95.886345,384.648804 99.375710,381.652863 102.908127,378.236420 
z"/>
<path fill="#FDF5F7" opacity="1.000000" stroke="none" 
	d="
M246.738953,432.884521 
	C243.887772,433.766357 241.408249,434.766296 238.854797,435.019043 
	C237.852280,435.118256 236.250885,433.740448 235.761688,432.656433 
	C235.488510,432.051147 236.724640,430.379822 237.653702,429.694855 
	C239.758850,428.142700 241.985107,426.647217 244.374130,425.623474 
	C246.116577,424.876801 248.197449,424.919861 250.127457,424.610870 
	C249.878571,426.679138 249.812927,428.795502 249.288895,430.791534 
	C249.084885,431.568573 247.847641,432.074341 246.738953,432.884521 
z"/>
<path fill="#FDF7F9" opacity="1.000000" stroke="none" 
	d="
M374.046875,97.871628 
	C373.994019,95.770561 374.139313,94.019524 374.284576,92.268478 
	C376.048340,92.742928 378.716248,92.670609 379.398651,93.798996 
	C381.130341,96.662491 382.287170,99.997322 382.985077,103.289513 
	C383.204346,104.323738 381.233185,105.822327 380.264618,107.108368 
	C378.891968,106.005455 377.161102,105.137802 376.241425,103.737419 
	C375.197235,102.147537 374.878876,100.080986 374.046875,97.871628 
z"/>
<path fill="#FDF5F7" opacity="1.000000" stroke="none" 
	d="
M105.712593,405.499695 
	C104.377350,403.658630 103.382889,402.011719 102.388420,400.364838 
	C104.182549,399.934387 105.962181,399.253204 107.775139,399.148407 
	C109.386673,399.055237 111.268364,399.199219 112.604027,399.974152 
	C114.040001,400.807281 114.978790,402.497314 116.134506,403.813477 
	C114.701515,404.872314 113.370895,406.572876 111.808762,406.822052 
	C109.996391,407.111115 107.980766,406.125916 105.712593,405.499695 
z"/>
<path fill="#32DEA7" opacity="1.000000" stroke="none" 
	d="
M527.766235,493.745483 
	C532.430420,489.726685 536.688477,485.747925 541.362122,482.338898 
	C542.550842,481.471832 545.059631,482.414703 546.961914,482.525970 
	C546.853516,484.308380 547.459595,486.748901 546.521606,487.767029 
	C540.117126,494.719025 533.409302,501.393097 526.751892,508.109772 
	C524.566772,510.314240 522.241089,512.379395 518.874146,515.549011 
	C527.679810,516.831360 535.096680,517.910522 542.513184,518.992676 
	C543.654846,519.159241 544.942444,519.070862 545.891479,519.593079 
	C546.761658,520.071960 547.896484,521.317932 547.779968,522.043823 
	C547.613281,523.082825 546.551208,524.584961 545.631104,524.785278 
	C542.576477,525.450195 539.376770,526.116943 536.300842,525.883972 
	C528.727722,525.310486 521.198486,524.178406 513.636780,523.417603 
	C512.283997,523.281494 510.413696,523.363403 509.539856,524.167725 
	C502.202911,530.920410 495.037506,537.859558 487.847626,544.770874 
	C487.546600,545.060303 487.513519,545.628418 487.042969,546.934448 
	C495.906830,548.319397 504.487061,549.654114 513.065002,551.003418 
	C516.004211,551.465759 519.073792,551.589844 521.822327,552.588257 
	C523.457397,553.182129 524.583130,555.177795 525.937866,556.543213 
	C524.168640,557.694214 522.427917,559.762451 520.624756,559.818420 
	C515.852661,559.966675 511.035645,559.396606 506.269073,558.835571 
	C496.920532,557.735107 487.604614,556.348816 478.247070,555.342590 
	C476.854523,555.192749 475.014526,556.132568 473.882080,557.134216 
	C466.591705,563.582397 459.440674,570.188232 451.219696,577.675049 
	C458.583801,579.255798 464.958649,580.577332 471.308472,582.010010 
	C473.890350,582.592529 476.545868,583.140747 478.917908,584.242676 
	C480.176697,584.827454 480.900696,586.563477 481.866089,587.779846 
	C480.563995,588.527100 479.207245,589.997131 477.968750,589.903503 
	C470.390015,589.330139 462.311249,589.821655 455.401978,587.256836 
	C445.286163,583.501648 439.017426,587.457764 432.403015,593.942993 
	C427.103149,599.139221 421.213104,603.775879 415.269836,608.241394 
	C413.912598,609.261108 411.258881,608.555176 409.201904,608.643494 
	C409.475891,606.582764 408.989716,603.780884 410.153290,602.587402 
	C415.679504,596.918823 421.316559,591.249084 427.569794,586.430542 
	C433.385071,581.949463 436.507172,577.307739 436.257446,569.438293 
	C435.917358,558.721741 437.236603,547.942932 438.085388,537.209900 
	C438.199127,535.771729 439.719666,534.444824 440.588745,533.066406 
	C441.860291,534.299561 443.991180,535.382080 444.238678,536.794617 
	C444.919617,540.680603 444.932465,544.703308 444.988007,548.674988 
	C445.084625,555.589233 445.014893,562.505798 445.014893,570.945740 
	C451.487946,565.057068 456.611816,559.961914 462.202148,555.443909 
	C466.885468,551.658875 468.475922,547.358459 468.136017,541.330078 
	C467.360046,527.567688 467.235046,513.764160 467.084320,499.974670 
	C467.054413,497.238281 467.899353,494.429443 468.733704,491.777649 
	C469.063904,490.728302 470.579620,489.221649 471.353424,489.332611 
	C472.580170,489.508514 474.196716,490.646759 474.644745,491.776001 
	C475.479004,493.878632 475.917053,496.263397 475.947662,498.538452 
	C476.082062,508.531219 475.919830,518.528076 476.061523,528.520630 
	C476.117462,532.465881 476.684937,536.403870 477.068207,540.919312 
	C478.381775,540.271301 479.324829,540.040833 479.945343,539.463623 
	C486.029449,533.804077 491.794098,527.765076 498.186371,522.483582 
	C503.661621,517.959778 504.718872,512.252197 505.050842,505.793701 
	C505.441132,498.200653 506.282501,490.629211 507.020416,483.057404 
	C507.129425,481.938782 507.471008,480.613190 508.193359,479.838898 
	C509.224182,478.733917 510.706055,478.049713 511.995239,477.185760 
	C512.671875,478.545166 513.904358,479.892517 513.934204,481.265961 
	C514.116150,489.654572 514.025208,498.049133 514.025208,507.443939 
	C518.722290,502.761597 523.118347,498.379303 527.766235,493.745483 
z"/>
<path fill="#EEFCF7" opacity="1.000000" stroke="none" 
	d="
M456.803101,602.363770 
	C459.582672,602.575378 461.931671,602.618652 464.196686,603.076904 
	C465.133057,603.266296 465.889404,604.345520 466.727600,605.020081 
	C466.033051,605.812134 465.414154,607.202820 464.631989,607.301697 
	C458.239197,608.109924 451.824066,608.824829 445.394318,609.179016 
	C444.264130,609.241272 443.033875,607.485718 441.849854,606.569641 
	C442.884277,605.269592 443.772400,603.032654 444.980377,602.843994 
	C448.700806,602.263062 452.543488,602.465027 456.803101,602.363770 
z"/>
<path fill="#EEFCF8" opacity="1.000000" stroke="none" 
	d="
M565.221191,460.743744 
	C559.116150,462.210663 553.128174,463.441437 547.089172,464.322357 
	C546.321838,464.434265 544.771179,462.840454 544.524353,461.811188 
	C544.284363,460.810822 544.946960,459.208801 545.750732,458.415680 
	C548.130432,456.067657 561.383423,455.376831 563.896057,457.439301 
	C564.664124,458.069763 564.863037,459.393555 565.221191,460.743744 
z"/>
<path fill="#EEFCF7" opacity="1.000000" stroke="none" 
	d="
M533.093018,460.391602 
	C536.122986,460.598999 539.032288,461.252869 537.937500,464.574554 
	C537.465820,466.005798 534.524536,467.202423 532.610229,467.361115 
	C531.466431,467.455933 530.138733,465.333344 528.893677,464.207550 
	C530.170227,462.940674 531.446777,461.673767 533.093018,460.391602 
z"/>
<path fill="#FEFCFD" opacity="1.000000" stroke="none" 
	d="
M219.038635,323.380005 
	C210.305786,321.853210 201.572952,320.326447 192.187164,318.522491 
	C189.123993,317.344452 186.713791,316.443604 184.303574,315.542725 
	C176.785980,310.949219 169.268387,306.355713 161.265839,301.371765 
	C159.202225,299.634033 157.623581,298.286743 156.044952,296.939484 
	C145.619690,287.115753 138.431488,275.298492 134.114319,260.926025 
	C133.553314,258.832275 133.163635,257.420074 132.773956,256.007904 
	C129.389130,239.912476 129.624908,223.860168 133.575195,207.142838 
	C134.334778,204.376816 134.866669,202.317337 135.398560,200.257874 
	C138.517242,193.726486 141.635941,187.195084 145.139084,180.156296 
	C147.035782,177.447784 148.548019,175.246674 150.060257,173.045547 
	C157.597031,166.352600 165.133789,159.659668 173.209473,152.607056 
	C175.230835,151.314316 176.713287,150.381226 178.195740,149.448120 
	C190.173935,143.165222 202.833649,139.028732 217.086700,137.254059 
	C219.946091,137.050735 221.994797,136.950592 224.043488,136.850449 
	C229.065445,137.182404 234.087402,137.514374 239.901337,137.927658 
	C242.763657,138.394623 244.833984,138.780243 246.904312,139.165878 
	C258.382721,144.335892 269.861145,149.505905 281.924957,154.982834 
	C284.625031,156.669815 286.739685,158.049896 288.854370,159.429977 
	C298.927490,167.790298 308.034393,176.992905 314.634827,189.215988 
	C315.944946,191.522781 316.945801,193.263550 317.946655,195.004318 
	C319.959564,202.057404 321.972443,209.110489 324.068573,216.937088 
	C324.474701,219.485886 324.797577,221.261185 325.120483,223.036469 
	C325.812836,237.476364 324.564880,251.627640 318.547119,265.709747 
	C317.462463,268.162903 316.691986,270.022430 315.921509,271.881989 
	C309.577911,283.043793 301.720062,292.965424 291.378265,301.614319 
	C289.194672,303.263916 287.499420,304.551758 285.804169,305.839630 
	C278.425507,309.469055 271.046844,313.098480 262.975189,316.900879 
	C260.171692,317.776337 258.061188,318.478790 255.950699,319.181244 
	C246.261597,320.512787 236.572479,321.844330 226.005539,323.191406 
	C223.098007,323.264648 221.068329,323.322327 219.038635,323.380005 
M154.918747,206.536133 
	C153.777161,211.888138 152.209290,217.189499 151.566467,222.600754 
	C148.482651,248.559906 160.139175,281.517975 189.857224,294.947571 
	C214.868637,306.250275 240.070358,304.998322 264.760254,293.749054 
	C278.772400,287.364838 289.737335,277.265930 296.941101,263.492798 
	C312.888031,233.003189 304.635468,197.415024 276.527374,174.941315 
	C233.929520,140.882339 174.133636,156.061676 154.918747,206.536133 
z"/>
<path fill="#FF588D" opacity="1.000000" stroke="none" 
	d="
M224.023468,136.392303 
	C221.994797,136.950592 219.946091,137.050735 217.460495,137.106476 
	C216.674820,122.454697 216.283508,107.848175 215.998505,93.239571 
	C215.886444,87.495430 215.823502,81.735321 216.167664,76.008293 
	C216.249344,74.649025 218.058151,73.393562 219.072510,72.090355 
	C219.979004,73.319946 221.254196,74.428360 221.707306,75.806969 
	C222.422440,77.982834 222.880768,80.333038 222.935547,82.621719 
	C223.360748,100.390869 223.663086,118.162964 224.023468,136.392303 
z"/>
<path fill="#FF5A8E" opacity="1.000000" stroke="none" 
	d="
M246.924683,138.742767 
	C244.833984,138.780243 242.763657,138.394623 240.314453,137.890961 
	C241.204224,131.973007 242.560272,126.190559 243.723480,120.369591 
	C246.213470,107.909050 248.597885,95.427444 251.041931,82.957672 
	C251.359848,81.335617 251.442963,79.538002 252.241348,78.177673 
	C252.975845,76.926178 254.528015,76.154587 255.719971,75.171585 
	C256.479370,76.459793 257.998840,77.824905 257.877533,79.024017 
	C256.932495,88.365173 256.132111,97.761635 254.387070,106.970459 
	C252.389542,117.511749 249.466171,127.877602 246.924683,138.742767 
z"/>
<path fill="#FF5A8E" opacity="1.000000" stroke="none" 
	d="
M184.237640,315.942871 
	C186.713791,316.443604 189.123993,317.344452 191.788544,318.470795 
	C180.256134,334.074860 168.543076,349.511200 156.592178,364.761108 
	C155.046249,366.733765 152.270554,367.742676 149.570053,369.524200 
	C148.193680,363.555695 151.606400,360.697174 154.025162,357.503876 
	C163.529480,344.956116 173.121735,332.475006 182.618561,319.921631 
	C183.380951,318.913849 183.665253,317.544403 184.237640,315.942871 
z"/>
<path fill="#FF5A8E" opacity="1.000000" stroke="none" 
	d="
M155.908905,297.254639 
	C157.623581,298.286743 159.202225,299.634033 160.934021,301.237366 
	C160.898117,301.950836 160.817093,302.505859 160.504486,302.851501 
	C147.156097,317.611145 133.820358,332.382690 120.369125,347.048279 
	C119.023178,348.515717 116.960304,349.325653 115.230148,350.440735 
	C114.624298,349.869568 114.018448,349.298401 113.412598,348.727264 
	C116.532516,344.063751 119.208809,339.015198 122.858009,334.811096 
	C132.639420,323.542267 142.850067,312.646454 152.852142,301.568054 
	C153.952271,300.349579 154.805252,298.907928 155.908905,297.254639 
z"/>
<path fill="#FF5A8E" opacity="1.000000" stroke="none" 
	d="
M286.116272,306.001953 
	C287.499420,304.551758 289.194672,303.263916 291.191772,301.909851 
	C296.535828,307.266327 301.936493,312.403595 306.535309,318.179321 
	C313.225677,326.581757 319.432556,335.378387 325.588226,344.186768 
	C326.440552,345.406433 325.821960,347.654083 325.884308,349.425812 
	C324.140869,348.752228 321.783234,348.583649 320.749603,347.326477 
	C311.080811,335.567200 301.674927,323.592255 292.097229,311.757141 
	C290.437775,309.706573 288.329407,308.019348 286.116272,306.001953 
z"/>
<path fill="#FF5A8E" opacity="1.000000" stroke="none" 
	d="
M149.719482,172.891098 
	C148.548019,175.246674 147.035782,177.447784 145.241318,179.822998 
	C140.604248,178.482651 136.240036,176.994583 131.896393,175.448685 
	C120.212784,171.290482 108.515816,167.167465 96.885773,162.863937 
	C95.311264,162.281311 94.090080,160.743835 93.161118,158.683685 
	C113.007980,159.485062 130.724548,168.012939 149.719482,172.891098 
z"/>
<path fill="#FF5A8E" opacity="1.000000" stroke="none" 
	d="
M134.979019,200.137939 
	C134.866669,202.317337 134.334778,204.376816 133.615387,206.718353 
	C116.125793,203.419083 98.639870,200.464371 82.473335,192.869461 
	C81.069969,192.210175 80.354370,190.086899 79.319290,188.643677 
	C80.917244,188.277679 82.663681,187.296555 84.090164,187.640900 
	C98.210129,191.049362 112.273407,194.692093 126.362305,198.230423 
	C129.073334,198.911270 131.826004,199.426407 134.979019,200.137939 
z"/>
<path fill="#FF5A8E" opacity="1.000000" stroke="none" 
	d="
M256.004089,319.517303 
	C258.061188,318.478790 260.171692,317.776337 262.651794,317.067627 
	C266.676727,322.536835 270.048126,328.230316 274.048462,333.440887 
	C281.619598,343.302551 289.572998,352.870148 297.309753,362.605896 
	C298.384888,363.958832 299.131653,365.572723 300.244965,367.422180 
	C292.826080,366.940582 269.823608,341.780457 256.004089,319.517303 
z"/>
<path fill="#FF5A8E" opacity="1.000000" stroke="none" 
	d="
M318.342377,195.008698 
	C316.945801,193.263550 315.944946,191.522781 314.886719,189.441711 
	C324.173553,185.787720 333.445679,182.247559 342.888000,179.242249 
	C348.901123,177.328400 354.993713,174.858459 362.423645,177.802002 
	C360.398865,179.292526 358.582520,181.366898 356.314697,182.176514 
	C343.850189,186.626312 331.275177,190.766586 318.342377,195.008698 
z"/>
<path fill="#FF598E" opacity="1.000000" stroke="none" 
	d="
M325.528870,223.023285 
	C324.797577,221.261185 324.474701,219.485886 324.175476,217.326630 
	C335.544067,214.771118 346.874817,212.520462 358.245148,210.491333 
	C360.674835,210.057709 363.248047,210.428085 365.879913,211.211731 
	C353.924347,219.945312 339.453613,219.884430 325.528870,223.023285 
z"/>
<path fill="#E71E5D" opacity="1.000000" stroke="none" 
	d="
M219.033417,323.775360 
	C221.068329,323.322327 223.098007,323.264648 225.555908,323.294922 
	C224.413254,332.953400 222.316040,342.277618 214.993576,349.156494 
	C214.350616,348.946259 213.707657,348.735992 213.064697,348.525757 
	C215.052536,340.407410 217.040375,332.289062 219.033417,323.775360 
z"/>
<path fill="#FFF2F6" opacity="1.000000" stroke="none" 
	d="
M125.635468,136.290741 
	C123.474327,135.181503 121.741531,134.082748 120.008728,132.983978 
	C121.717049,131.787430 123.425018,129.588715 125.133759,129.588120 
	C129.689484,129.586533 134.317871,130.227936 138.756027,131.288727 
	C140.035751,131.594589 140.768372,134.189377 141.751816,135.734756 
	C140.116714,136.473557 138.459290,137.871582 136.851044,137.817139 
	C133.242325,137.694962 129.658035,136.851196 125.635468,136.290741 
z"/>
<path fill="#FFF7F9" opacity="1.000000" stroke="none" 
	d="
M377.825745,205.316925 
	C379.174530,207.352966 380.915558,209.263062 380.959930,211.211792 
	C381.056549,215.454971 380.553436,219.771530 379.708740,223.939178 
	C379.462952,225.151825 377.338623,226.417328 375.864838,226.764313 
	C375.128998,226.937576 373.028656,225.055450 373.067596,224.169983 
	C373.313385,218.582458 373.871368,212.997849 374.637726,207.455338 
	C374.756927,206.593323 376.471680,205.951935 377.825745,205.316925 
z"/>
<path fill="#FFF5F8" opacity="1.000000" stroke="none" 
	d="
M332.492065,365.401001 
	C329.306793,368.004059 326.519989,370.638245 323.278992,372.467865 
	C322.077484,373.146179 319.809784,371.935913 318.028320,371.586914 
	C318.766174,370.057800 319.225555,368.285248 320.302765,367.052704 
	C322.253815,364.820221 324.398712,362.662842 326.806641,360.960632 
	C328.172272,359.995239 330.221069,359.996185 331.962189,359.561920 
	C332.211578,361.412231 332.460938,363.262573 332.492065,365.401001 
z"/>
<path fill="#FFF6F9" opacity="1.000000" stroke="none" 
	d="
M232.827499,51.604359 
	C237.441666,52.042892 241.854141,52.423038 245.975830,53.724247 
	C247.236084,54.122108 247.697800,57.049393 248.525208,58.818314 
	C246.669067,59.281960 244.741806,60.302738 242.973663,60.077023 
	C240.403000,59.748856 237.971237,58.439194 235.436035,57.699566 
	C232.310181,56.787628 230.789902,55.194584 232.827499,51.604359 
z"/>
<path fill="#FFF6F9" opacity="1.000000" stroke="none" 
	d="
M92.673004,313.651398 
	C94.279373,312.688293 95.648041,312.015930 97.016701,311.343597 
	C97.102867,312.843140 97.384399,314.362366 97.235924,315.838318 
	C96.890312,319.273773 96.660072,322.779663 95.728592,326.071838 
	C95.283012,327.646667 93.348877,328.800354 92.088943,330.144775 
	C91.001328,328.793365 88.826378,327.255005 89.020851,326.124054 
	C89.731712,321.989960 91.232231,317.991638 92.673004,313.651398 
z"/>
<path fill="#E7205E" opacity="1.000000" stroke="none" 
	d="
M316.077698,272.190918 
	C316.691986,270.022430 317.462463,268.162903 318.483887,266.083069 
	C323.745178,270.036011 329.944458,273.383575 329.994202,282.120911 
	C323.420227,280.874664 320.671265,275.422882 316.077698,272.190918 
z"/>
<path fill="#E7205F" opacity="1.000000" stroke="none" 
	d="
M178.147522,148.975494 
	C176.713287,150.381226 175.230835,151.314316 173.436417,152.382080 
	C172.742157,147.541260 172.289597,142.569077 172.052109,137.586670 
	C172.015823,136.825760 172.974075,136.017456 173.695999,134.878067 
	C178.423218,138.673126 177.880798,143.715256 178.147522,148.975494 
z"/>
<path fill="#E7205E" opacity="1.000000" stroke="none" 
	d="
M288.906860,159.052002 
	C286.739685,158.049896 284.625031,156.669815 282.253601,155.061279 
	C285.318756,152.606384 288.560211,150.238480 292.027649,148.268173 
	C292.755951,147.854324 294.813293,148.574707 295.340363,149.376129 
	C295.797638,150.071335 295.297455,151.896378 294.619934,152.739563 
	C292.913788,154.862946 290.868622,156.713867 288.906860,159.052002 
z"/>
<path fill="#E81F5E" opacity="1.000000" stroke="none" 
	d="
M132.335449,256.007202 
	C133.163635,257.420074 133.553314,258.832275 133.921387,260.609680 
	C128.459427,260.202301 123.019089,259.429688 117.578743,258.657074 
	C117.577194,258.175903 117.575645,257.694733 117.574097,257.213593 
	C122.348373,256.811218 127.122650,256.408844 132.335449,256.007202 
z"/>
<path fill="#DA2458" opacity="1.000000" stroke="none" 
	d="
M167.053238,131.138962 
	C167.122375,131.140884 167.244766,131.281754 167.367142,131.422638 
	C167.280258,131.374390 167.193375,131.326157 167.053238,131.138962 
z"/>
<path fill="#DA2458" opacity="1.000000" stroke="none" 
	d="
M295.006683,144.008652 
	C294.909790,144.043732 294.805786,144.070145 294.841827,144.041168 
	C294.981903,143.985794 294.999542,143.999985 295.006683,144.008652 
z"/>
<path fill="#996666" opacity="1.000000" stroke="none" 
	d="
M155.009369,206.151031 
	C174.133636,156.061676 233.929520,140.882339 276.527374,174.941315 
	C304.635468,197.415024 312.888031,233.003189 296.941101,263.492798 
	C289.737335,277.265930 278.772400,287.364838 264.760254,293.749054 
	C240.070358,304.998322 214.868637,306.250275 189.857224,294.947571 
	C160.139175,281.517975 148.482651,248.559906 151.566467,222.600754 
	C152.209290,217.189499 153.777161,211.888138 155.009369,206.151031 
M288.917542,252.887360 
	C289.951355,252.379059 291.108490,252.028732 291.997253,251.334702 
	C295.555389,248.556122 296.075745,243.273926 293.231750,239.826111 
	C290.647003,236.692581 284.570831,235.793839 281.473419,238.086899 
	C277.687714,240.889511 276.453674,246.789490 279.786652,249.831268 
	C281.824432,251.691025 285.290131,251.986145 288.917542,252.887360 
M235.762299,168.413361 
	C229.869461,167.801224 226.464920,170.267746 225.996460,175.488541 
	C225.524155,180.752151 228.355530,184.521088 233.126801,184.980011 
	C237.822952,185.431717 241.406937,182.464096 241.892487,177.465347 
	C242.300079,173.269043 239.933731,170.619949 235.762299,168.413361 
M188.001724,218.538849 
	C185.058975,223.648468 185.435318,227.720337 189.103699,230.462143 
	C192.375061,232.907211 196.802414,232.527939 199.997375,229.528870 
	C203.467773,226.271301 203.756897,223.030624 200.942810,218.932663 
	C198.473480,215.336761 193.788040,214.976212 188.001724,218.538849 
M215.390579,281.262665 
	C214.350449,285.195221 215.192627,288.535889 218.712250,290.818878 
	C222.369247,293.190948 226.958557,292.178558 229.150238,288.676788 
	C231.946838,284.208527 231.326538,279.847626 227.533295,277.309387 
	C223.504150,274.613312 219.095886,275.826050 215.390579,281.262665 
M280.284790,206.949097 
	C281.356842,206.539124 282.561829,206.320847 283.477844,205.685822 
	C287.325775,203.018311 287.742371,199.192963 286.491547,195.110321 
	C284.987488,190.201187 280.795807,190.563660 277.055023,191.096710 
	C272.718445,191.714691 272.052612,195.226089 271.957245,198.944611 
	C271.823395,204.164978 274.905487,206.253571 280.284790,206.949097 
M192.855148,250.724854 
	C192.561829,251.988190 192.066238,253.242889 192.011749,254.516449 
	C191.820404,258.987152 194.586975,262.419678 198.638382,262.951721 
	C202.178253,263.416595 206.811157,260.264160 207.629822,256.456207 
	C208.532806,252.256180 206.208221,249.298401 202.752274,247.607864 
	C199.192413,245.866516 195.981995,247.318558 192.855148,250.724854 
M222.366684,195.031372 
	C218.270554,193.688339 214.387100,194.426910 212.653137,198.365448 
	C211.264694,201.519211 210.624207,205.619095 214.100449,208.352386 
	C217.143387,210.744995 220.598038,210.699860 223.787094,208.512115 
	C228.357574,205.376663 228.002182,199.355896 222.366684,195.031372 
M221.490387,228.167191 
	C221.001724,229.385788 220.222702,230.571136 220.078644,231.829193 
	C219.639725,235.662628 221.045807,238.642990 224.710190,240.307068 
	C228.093475,241.843521 230.972778,240.784729 233.158401,238.163727 
	C235.643387,235.183746 235.779022,231.764633 233.667831,228.472229 
	C231.267807,224.729370 226.980453,224.451691 221.490387,228.167191 
M156.100967,231.807037 
	C153.950806,235.857513 154.975830,239.280838 158.595230,241.703796 
	C161.993362,243.978607 165.628891,243.646515 168.574509,240.782059 
	C171.514420,237.923157 170.941711,234.518036 169.103363,231.269440 
	C166.645523,226.926147 161.317825,226.900040 156.100967,231.807037 
M191.404999,198.994415 
	C196.913727,197.700668 198.742371,195.119476 197.986816,189.437057 
	C197.498932,185.767792 195.293411,184.162903 191.576447,183.927597 
	C187.055420,183.641373 184.686279,185.699112 184.031799,189.934601 
	C183.239792,195.060272 185.239212,197.722015 191.404999,198.994415 
M256.986816,200.935043 
	C255.875809,196.449036 252.604843,195.413208 248.645584,196.100113 
	C245.571808,196.633377 243.119843,198.087234 242.956650,201.847153 
	C242.734222,206.971832 245.076279,209.823318 249.957916,210.008102 
	C255.078445,210.201935 256.921539,208.049652 256.986816,200.935043 
M259.119629,271.129822 
	C254.833008,274.191162 253.703522,277.691101 255.836411,281.598999 
	C257.767578,285.137299 261.007202,285.601654 264.422272,284.639587 
	C268.574951,283.469727 269.451965,280.041718 268.941925,276.318207 
	C268.207245,270.954742 264.171753,270.707458 259.119629,271.129822 
M245.476044,260.224426 
	C248.523926,261.747162 251.407120,260.908722 252.684021,258.159149 
	C253.656662,256.064728 254.047089,252.469543 252.874237,250.932999 
	C251.529297,249.170990 248.156967,248.254089 245.695801,248.309937 
	C244.219971,248.343414 241.520508,251.045761 241.630356,252.359680 
	C241.846375,254.943451 243.637909,257.395508 245.476044,260.224426 
M260.394440,222.005447 
	C255.305054,222.787781 253.330292,225.229630 254.015320,229.893326 
	C254.517456,233.311859 257.887756,236.024628 261.130981,234.796967 
	C263.076599,234.060516 265.240723,231.890320 265.799438,229.934036 
	C266.850525,226.253754 265.350250,223.141602 260.394440,222.005447 
M187.949738,279.559082 
	C190.561523,277.356262 190.855438,274.483154 188.858307,272.125214 
	C187.622559,270.666168 185.044586,269.470032 183.173813,269.605133 
	C179.311523,269.884125 177.322815,273.283234 178.340057,276.603027 
	C179.600723,280.717224 182.238754,281.737122 187.949738,279.559082 
z"/>
<path fill="#755052" opacity="1.000000" stroke="none" 
	d="
M288.516052,252.935669 
	C285.290131,251.986145 281.824432,251.691025 279.786652,249.831268 
	C276.453674,246.789490 277.687714,240.889511 281.473419,238.086899 
	C284.570831,235.793839 290.647003,236.692581 293.231750,239.826111 
	C296.075745,243.273926 295.555389,248.556122 291.997253,251.334702 
	C291.108490,252.028732 289.951355,252.379059 288.516052,252.935669 
z"/>
<path fill="#755153" opacity="1.000000" stroke="none" 
	d="
M236.111145,168.581238 
	C239.933731,170.619949 242.300079,173.269043 241.892487,177.465347 
	C241.406937,182.464096 237.822952,185.431717 233.126801,184.980011 
	C228.355530,184.521088 225.524155,180.752151 225.996460,175.488541 
	C226.464920,170.267746 229.869461,167.801224 236.111145,168.581238 
z"/>
<path fill="#755052" opacity="1.000000" stroke="none" 
	d="
M188.282074,218.259430 
	C193.788040,214.976212 198.473480,215.336761 200.942810,218.932663 
	C203.756897,223.030624 203.467773,226.271301 199.997375,229.528870 
	C196.802414,232.527939 192.375061,232.907211 189.103699,230.462143 
	C185.435318,227.720337 185.058975,223.648468 188.282074,218.259430 
z"/>
<path fill="#755153" opacity="1.000000" stroke="none" 
	d="
M215.565521,280.908142 
	C219.095886,275.826050 223.504150,274.613312 227.533295,277.309387 
	C231.326538,279.847626 231.946838,284.208527 229.150238,288.676788 
	C226.958557,292.178558 222.369247,293.190948 218.712250,290.818878 
	C215.192627,288.535889 214.350449,285.195221 215.565521,280.908142 
z"/>
<path fill="#755052" opacity="1.000000" stroke="none" 
	d="
M279.892792,206.961487 
	C274.905487,206.253571 271.823395,204.164978 271.957245,198.944611 
	C272.052612,195.226089 272.718445,191.714691 277.055023,191.096710 
	C280.795807,190.563660 284.987488,190.201187 286.491547,195.110321 
	C287.742371,199.192963 287.325775,203.018311 283.477844,205.685822 
	C282.561829,206.320847 281.356842,206.539124 279.892792,206.961487 
z"/>
<path fill="#755153" opacity="1.000000" stroke="none" 
	d="
M193.116241,250.422974 
	C195.981995,247.318558 199.192413,245.866516 202.752274,247.607864 
	C206.208221,249.298401 208.532806,252.256180 207.629822,256.456207 
	C206.811157,260.264160 202.178253,263.416595 198.638382,262.951721 
	C194.586975,262.419678 191.820404,258.987152 192.011749,254.516449 
	C192.066238,253.242889 192.561829,251.988190 193.116241,250.422974 
z"/>
<path fill="#755153" opacity="1.000000" stroke="none" 
	d="
M222.741867,195.110458 
	C228.002182,199.355896 228.357574,205.376663 223.787094,208.512115 
	C220.598038,210.699860 217.143387,210.744995 214.100449,208.352386 
	C210.624207,205.619095 211.264694,201.519211 212.653137,198.365448 
	C214.387100,194.426910 218.270554,193.688339 222.741867,195.110458 
z"/>
<path fill="#755153" opacity="1.000000" stroke="none" 
	d="
M221.740784,227.867126 
	C226.980453,224.451691 231.267807,224.729370 233.667831,228.472229 
	C235.779022,231.764633 235.643387,235.183746 233.158401,238.163727 
	C230.972778,240.784729 228.093475,241.843521 224.710190,240.307068 
	C221.045807,238.642990 219.639725,235.662628 220.078644,231.829193 
	C220.222702,230.571136 221.001724,229.385788 221.740784,227.867126 
z"/>
<path fill="#755153" opacity="1.000000" stroke="none" 
	d="
M156.304977,231.474030 
	C161.317825,226.900040 166.645523,226.926147 169.103363,231.269440 
	C170.941711,234.518036 171.514420,237.923157 168.574509,240.782059 
	C165.628891,243.646515 161.993362,243.978607 158.595230,241.703796 
	C154.975830,239.280838 153.950806,235.857513 156.304977,231.474030 
z"/>
<path fill="#755052" opacity="1.000000" stroke="none" 
	d="
M191.004089,198.994400 
	C185.239212,197.722015 183.239792,195.060272 184.031799,189.934601 
	C184.686279,185.699112 187.055420,183.641373 191.576447,183.927597 
	C195.293411,184.162903 197.498932,185.767792 197.986816,189.437057 
	C198.742371,195.119476 196.913727,197.700668 191.004089,198.994400 
z"/>
<path fill="#755052" opacity="1.000000" stroke="none" 
	d="
M257.003418,201.348145 
	C256.921539,208.049652 255.078445,210.201935 249.957916,210.008102 
	C245.076279,209.823318 242.734222,206.971832 242.956650,201.847153 
	C243.119843,198.087234 245.571808,196.633377 248.645584,196.100113 
	C252.604843,195.413208 255.875809,196.449036 257.003418,201.348145 
z"/>
<path fill="#755153" opacity="1.000000" stroke="none" 
	d="
M259.530945,271.072021 
	C264.171753,270.707458 268.207245,270.954742 268.941925,276.318207 
	C269.451965,280.041718 268.574951,283.469727 264.422272,284.639587 
	C261.007202,285.601654 257.767578,285.137299 255.836411,281.598999 
	C253.703522,277.691101 254.833008,274.191162 259.530945,271.072021 
z"/>
<path fill="#755153" opacity="1.000000" stroke="none" 
	d="
M245.126831,260.063232 
	C243.637909,257.395508 241.846375,254.943451 241.630356,252.359680 
	C241.520508,251.045761 244.219971,248.343414 245.695801,248.309937 
	C248.156967,248.254089 251.529297,249.170990 252.874237,250.932999 
	C254.047089,252.469543 253.656662,256.064728 252.684021,258.159149 
	C251.407120,260.908722 248.523926,261.747162 245.126831,260.063232 
z"/>
<path fill="#755153" opacity="1.000000" stroke="none" 
	d="
M260.793091,222.019699 
	C265.350250,223.141602 266.850525,226.253754 265.799438,229.934036 
	C265.240723,231.890320 263.076599,234.060516 261.130981,234.796967 
	C257.887756,236.024628 254.517456,233.311859 254.015320,229.893326 
	C253.330292,225.229630 255.305054,222.787781 260.793091,222.019699 
z"/>
<path fill="#755153" opacity="1.000000" stroke="none" 
	d="
M187.656738,279.825439 
	C182.238754,281.737122 179.600723,280.717224 178.340057,276.603027 
	C177.322815,273.283234 179.311523,269.884125 183.173813,269.605133 
	C185.044586,269.470032 187.622559,270.666168 188.858307,272.125214 
	C190.855438,274.483154 190.561523,277.356262 187.656738,279.825439 
z"/>
</svg>